<?xml version="1.0" encoding="utf-8"?>
<!-- Generator: Adobe Illustrator 22.1.0, SVG Export Plug-In . SVG Version: 6.00 Build 0)  -->
<svg version="1.1" id="Layer_1" xmlns="http://www.w3.org/2000/svg" xmlns:xlink="http://www.w3.org/1999/xlink" x="0px" y="0px"
	 viewBox="0 0 1850.1 1256" style="enable-background:new 0 0 1850.1 1256;" xml:space="preserve">
<style type="text/css">
	.st0{fill:#FF0000;stroke:#000000;stroke-miterlimit:10;}
	.st1{fill:#3333FF;stroke:#000000;stroke-miterlimit:10;}
	.st2{fill:#00FF00;stroke:#000000;stroke-miterlimit:10;}
	.st3{fill:#FFFF00;stroke:#000000;stroke-miterlimit:10;}
	.st4{enable-background:new    ;}
</style>
<title>templete-gratis</title>
<g>
	<rect x="125" y="316.5" class="st0" width="84" height="255"/>
	<rect x="125" y="238.7" class="st1" width="307" height="77.7"/>
	<rect x="209" y="316.5" class="st2" width="223" height="255"/>
</g>
<g>
	<rect x="555" y="316.5" class="st0" width="102.3" height="177.3"/>
	<rect x="555" y="238.7" class="st1" width="307" height="77.7"/>
	<rect x="555" y="493.7" class="st2" width="307" height="77.7"/>
	<rect x="657.3" y="316.5" class="st0" width="102.3" height="177.2"/>
	<rect x="759.6" y="316.5" class="st0" width="102.4" height="177.2"/>
</g>
<g>
	<rect x="555" y="772.5" class="st0" width="102.3" height="177.3"/>
	<rect x="555" y="694.7" class="st1" width="307" height="77.7"/>
	<rect x="555" y="949.7" class="st2" width="307" height="77.7"/>
	<rect x="657.3" y="772.5" class="st0" width="204.7" height="177.2"/>
	<rect x="797" y="709.1" class="st3" width="50.1" height="50"/>
	<rect x="671.9" y="786" class="st3" width="50.1" height="50"/>
	<rect x="736.4" y="786" class="st3" width="110.9" height="151.4"/>
</g>
<g>
	<rect x="985" y="850.2" class="st0" width="307" height="177.3"/>
	<rect x="985" y="694.7" class="st1" width="307" height="77.7"/>
	<rect x="985" y="772.5" class="st2" width="307" height="77.7"/>
	<rect x="1006" y="871.8" class="st3" width="50.1" height="56.2"/>
	<rect x="1077.3" y="871.8" class="st3" width="50.1" height="56.2"/>
	<rect x="1220" y="871.8" class="st3" width="50.1" height="56.2"/>
	<rect x="1148.7" y="871.8" class="st3" width="50.1" height="56.2"/>
	<rect x="1006" y="950.8" class="st3" width="121.4" height="56.2"/>
	<rect x="1148.7" y="950.8" class="st3" width="121.4" height="56.2"/>
	<rect x="1138.5" y="694.7" class="st1" width="153.5" height="77.7"/>
</g>
<g>
	<rect x="125" y="850.2" class="st0" width="307" height="177.3"/>
	<rect x="125" y="694.7" class="st1" width="307" height="77.7"/>
	<rect x="125" y="772.5" class="st2" width="307" height="77.7"/>
	<rect x="142" y="788.8" class="st3" width="128" height="45.2"/>
	<rect x="286" y="788.8" class="st3" width="128" height="45.2"/>
	<rect x="142" y="868.8" class="st3" width="128" height="140.7"/>
	<rect x="286" y="868.8" class="st3" width="128" height="140.7"/>
</g>
<g>
	<rect x="985.1" y="238.7" class="st1" width="307" height="77.7"/>
	<rect x="985.1" y="493.7" class="st2" width="307" height="77.7"/>
	<rect x="985" y="316.5" class="st0" width="307" height="177.3"/>
	<rect x="1002" y="335.1" class="st3" width="128" height="140.7"/>
	<rect x="1146" y="335.1" class="st3" width="128" height="140.7"/>
</g>
<rect x="1422.2" y="318.6" class="st0" width="294.4" height="145.1"/>
<rect x="1422.2" y="463.7" class="st1" width="294.4" height="250.7"/>
<rect x="1422.2" y="150.7" class="st2" width="294.4" height="167.9"/>
<rect x="1434" y="379.5" class="st3" width="82.6" height="73.6"/>
<rect x="1422.2" y="118" class="st1" width="294.4" height="32.7"/>
<rect x="1528.3" y="379.5" class="st3" width="82.6" height="73.6"/>
<rect x="1622.7" y="379.5" class="st3" width="82.6" height="73.6"/>
<rect x="1422.2" y="714.3" class="st2" width="294.4" height="211.7"/>
<rect x="1434" y="782.3" class="st3" width="82.6" height="131.5"/>
<rect x="1422.2" y="926" class="st0" width="294.4" height="190.1"/>
<rect x="1528.3" y="782.3" class="st3" width="82.6" height="131.5"/>
<rect x="1622.7" y="975.8" class="st3" width="82.6" height="75.6"/>
<rect x="1622.7" y="782.3" class="st3" width="82.6" height="131.5"/>
<rect x="1434" y="727.1" class="st3" width="271.3" height="44.2"/>
<rect x="1434" y="127.4" class="st3" width="80" height="14.7"/>
<rect x="1524.3" y="127.4" class="st3" width="181" height="14.7"/>
<rect x="1434" y="329.5" class="st3" width="271.3" height="39.7"/>
<rect x="1434" y="975.8" class="st3" width="176.8" height="129.2"/>
<rect x="1434" y="939.3" class="st3" width="271.3" height="26.5"/>
<rect x="1434" y="518.2" class="st3" width="61.1" height="55.8"/>
<rect x="1503.8" y="518.2" class="st3" width="61.1" height="55.8"/>
<rect x="1573.6" y="518.2" class="st3" width="61.1" height="55.8"/>
<rect x="1643.7" y="518.2" class="st3" width="61.1" height="55.8"/>
<rect x="1434" y="581.8" class="st3" width="61.1" height="55.8"/>
<rect x="1503.8" y="581.8" class="st3" width="61.1" height="55.8"/>
<rect x="1573.6" y="581.8" class="st3" width="61.1" height="55.8"/>
<rect x="1643.7" y="581.8" class="st3" width="61.1" height="55.8"/>
<rect x="1434" y="645.4" class="st3" width="61.1" height="55.8"/>
<rect x="1503.8" y="645.4" class="st3" width="61.1" height="55.8"/>
<rect x="1573.6" y="645.4" class="st3" width="61.1" height="55.8"/>
<rect x="1643.7" y="645.4" class="st3" width="61.1" height="55.8"/>
<rect x="1434" y="477.8" class="st3" width="270.8" height="29.6"/>
<rect x="1422.2" y="1116.1" class="st1" width="294.4" height="29.9"/>
<g class="st4">
	<path d="M101.5,268.6h-2.8v-17.9c-0.7,0.6-1.6,1.3-2.7,1.9c-1.1,0.6-2.1,1.1-3,1.5v-2.7c1.6-0.7,2.9-1.6,4.1-2.7
		c1.2-1.1,2-2.1,2.5-3.1h1.8V268.6z"/>
</g>
<g class="st4">
	<path d="M534.7,265.9v2.7h-15.1c0-0.7,0.1-1.3,0.3-2c0.4-1,1-2,1.9-3c0.8-1,2.1-2.2,3.7-3.5c2.5-2,4.2-3.7,5-4.9
		c0.9-1.2,1.3-2.3,1.3-3.4c0-1.1-0.4-2.1-1.2-2.8s-1.8-1.1-3.1-1.1c-1.4,0-2.4,0.4-3.3,1.2s-1.2,1.9-1.2,3.4l-2.9-0.3
		c0.2-2.2,0.9-3.8,2.2-4.9c1.3-1.1,3-1.7,5.2-1.7c2.2,0,3.9,0.6,5.2,1.8s1.9,2.7,1.9,4.5c0,0.9-0.2,1.8-0.6,2.7
		c-0.4,0.9-1,1.8-1.9,2.8c-0.9,1-2.3,2.3-4.3,4c-1.7,1.4-2.8,2.4-3.3,2.9c-0.5,0.5-0.9,1-1.2,1.5H534.7z"/>
</g>
<g class="st4">
	<path d="M950,262.6l2.8-0.4c0.3,1.6,0.9,2.7,1.6,3.4s1.7,1.1,2.8,1.1c1.3,0,2.4-0.5,3.4-1.4c0.9-0.9,1.4-2.1,1.4-3.4
		c0-1.3-0.4-2.4-1.3-3.2c-0.8-0.8-1.9-1.3-3.2-1.3c-0.5,0-1.2,0.1-2,0.3l0.3-2.5c0.2,0,0.3,0,0.5,0c1.2,0,2.3-0.3,3.2-0.9
		s1.4-1.6,1.4-2.9c0-1-0.3-1.9-1-2.6c-0.7-0.7-1.6-1-2.7-1c-1.1,0-2,0.3-2.7,1s-1.2,1.7-1.4,3.1l-2.8-0.5c0.3-1.9,1.1-3.3,2.3-4.4
		c1.2-1,2.7-1.6,4.5-1.6c1.3,0,2.4,0.3,3.5,0.8c1.1,0.5,1.9,1.3,2.4,2.2c0.6,0.9,0.8,1.9,0.8,3c0,1-0.3,1.9-0.8,2.7
		s-1.3,1.5-2.4,1.9c1.4,0.3,2.4,1,3.2,1.9s1.1,2.2,1.1,3.7c0,2-0.7,3.7-2.2,5.1s-3.3,2.1-5.5,2.1c-2,0-3.7-0.6-5-1.8
		C950.9,266,950.2,264.5,950,262.6z"/>
</g>
<g class="st4">
	<path d="M100,725.6v-5.5H90v-2.6l10.5-14.8h2.3v14.8h3.1v2.6h-3.1v5.5H100z M100,717.5v-10.3l-7.2,10.3H100z"/>
</g>
<g class="st4">
	<path d="M519.9,719.6l3-0.3c0.2,1.4,0.7,2.5,1.5,3.2c0.8,0.7,1.8,1.1,2.9,1.1c1.4,0,2.5-0.5,3.4-1.5c0.9-1,1.4-2.4,1.4-4.1
		c0-1.6-0.5-2.9-1.4-3.8c-0.9-0.9-2.1-1.4-3.5-1.4c-0.9,0-1.7,0.2-2.5,0.6c-0.7,0.4-1.3,0.9-1.7,1.6l-2.6-0.3l2.2-11.8h11.4v2.7
		h-9.1l-1.2,6.2c1.4-1,2.8-1.4,4.3-1.4c2,0,3.7,0.7,5.1,2.1c1.4,1.4,2.1,3.2,2.1,5.3c0,2.1-0.6,3.9-1.8,5.4c-1.5,1.9-3.5,2.8-6,2.8
		c-2.1,0-3.8-0.6-5.1-1.8C520.9,723.1,520.1,721.5,519.9,719.6z"/>
</g>
<g class="st4">
	<path d="M964.5,708.3l-2.8,0.2c-0.3-1.1-0.6-1.9-1.1-2.4c-0.8-0.8-1.7-1.2-2.8-1.2c-0.9,0-1.7,0.3-2.4,0.8
		c-0.9,0.6-1.6,1.6-2.1,2.8c-0.5,1.2-0.8,3-0.8,5.3c0.7-1,1.5-1.8,2.5-2.3s2-0.8,3.1-0.8c1.9,0,3.5,0.7,4.8,2.1c1.3,1.4,2,3.2,2,5.4
		c0,1.4-0.3,2.8-0.9,4s-1.5,2.2-2.6,2.8s-2.3,1-3.7,1c-2.3,0-4.3-0.9-5.7-2.6c-1.5-1.7-2.2-4.6-2.2-8.5c0-4.4,0.8-7.6,2.5-9.7
		c1.4-1.8,3.3-2.6,5.8-2.6c1.8,0,3.3,0.5,4.4,1.5C963.6,705.1,964.3,706.5,964.5,708.3z M953.1,718.2c0,1,0.2,1.9,0.6,2.8
		c0.4,0.9,1,1.6,1.7,2c0.7,0.5,1.5,0.7,2.3,0.7c1.2,0,2.2-0.5,3.1-1.4c0.9-1,1.3-2.3,1.3-3.9c0-1.6-0.4-2.8-1.3-3.7
		c-0.8-0.9-1.9-1.4-3.2-1.4c-1.3,0-2.3,0.5-3.2,1.4C953.5,715.5,953.1,716.7,953.1,718.2z"/>
</g>
<g class="st4">
	<path d="M1389.1,131.7V129h14.8v2.2c-1.5,1.6-2.9,3.6-4.3,6.2c-1.4,2.6-2.5,5.2-3.3,7.9c-0.6,1.9-0.9,4-1.1,6.3h-2.9
		c0-1.8,0.4-4,1.1-6.5c0.7-2.6,1.6-5,2.9-7.4c1.3-2.4,2.6-4.4,4-6H1389.1z"/>
</g>
</svg>
