<?xml version="1.0" encoding="utf-8"?>
<!-- Generator: Adobe Illustrator 22.0.1, SVG Export Plug-In . SVG Version: 6.00 Build 0)  -->
<svg version="1.1" id="Layer_1" xmlns="http://www.w3.org/2000/svg" xmlns:xlink="http://www.w3.org/1999/xlink" x="0px" y="0px"
	 viewBox="0 0 42.5 41.1" style="enable-background:new 0 0 42.5 41.1;" xml:space="preserve">
<style type="text/css">
	.st0{fill:#EF4833;}
	.st1{fill:#FFFFFF;}
</style>
<title>twitter</title>
<path class="st0" d="M26.4,0.5C20.2-0.5,13,2.8,7.7,5.6c-2.3,1.2-5.3,2.6-6.5,5s-0.9,5.9-0.5,8.6c1,5.6,2.4,12.4,6.5,16.6
	s11,5.4,16.5,4.9s10.2-3.9,14-8.6c1.7-2,3.4-4.2,4.2-6.8s0-5.7-1.3-8.3c-1.3-2.8-3-5.4-5.2-7.5c-1.1-1-2.3-1.7-3.4-2.7
	c-1-1.3-2.1-2.4-3.3-3.5C24.4,0.1,17.6-0.8,12.8,2S2.6,9.9,1.6,16.1c-0.5,2.9-0.8,6.3,0.3,9c1,2.4,2.5,4.6,4.4,6.4
	c1.8,2.1,4.3,3.4,7,3.8c3.2,0.5,6.3,2.1,9.5,2.4c5.2,0.5,10.2-2.3,13.3-6.5c3.2-4.8,4.4-10.8,3.3-16.5c-0.5-2.4-1.4-4.8-3.3-6.3
	s-6.3-2.7-9.3-3.5C21.2,3.4,14.1,1.5,8.7,4.6c-5.1,3.1-8.1,8.8-7.7,14.9C1.5,25,4.9,29.7,9.8,31.8c2.7,1.1,5.6,1.5,8.6,1.3
	c3.5-0.1,7.1,0,10.5-0.4c5.7-0.7,8.9-5.1,9.9-10.7s-1.3-9.8-6.2-12.2S20.1,3.9,13.7,4.2S3.5,7.1,2.1,12.5c-0.6,2.8-0.5,5.7,0.2,8.4
	c0.7,2.8,1.8,6.4,3.6,8.7C9.5,34,17,34.7,22.1,33.5c5.3-1.4,9.8-4.7,12.8-9.3c1.4-2,3-4.8,2.9-7.4c-0.1-2.6-2.3-6.1-3.7-8.6
	s-2.3-3.4-4.6-4.1c-3.1-0.8-6.4-0.9-9.5-0.3c-2.6,0.2-5.1,1.5-6.8,3.6c-2.1,2.5-3.6,5.5-4.4,8.7C8.2,19.5,8.1,23,8.5,26.4
	c0.3,2.5,0.7,5.6,2.6,7.4c4,3.7,12.2,4.4,16.9,2.5s6.6-9.4,7.2-14.7c0.3-2.6,0.7-5.6-0.5-8s-4.2-4.2-6.5-5.3
	c-5.1-2.4-10.9-2.7-16.1-0.6C6.7,10,3.9,14.3,2.9,20.1s0.2,11,4.8,14.3s10.6,4.4,15.5,2.1s10.1-6.8,12.2-11.9s0-11.9-4.3-15
	s-9.6-5-15.1-3.4c-5,1.4-9,5.3-10.7,10.3C3.5,21.6,4,27.2,6.7,31.8c0.1,0.3,0.3,0.4,0.6,0.4c0.3-0.1,0.4-0.3,0.4-0.6
	c0-0.1-0.1-0.2-0.2-0.3c-5-8.7-1.4-21,8.5-24.1c4.9-1.5,9.4-0.1,13.6,2.6s7.2,10.4,4.2,15.8c-2.7,4.4-6.5,7.9-11.1,10.1
	c-4.6,2.1-10.5,0.8-14.5-2.1s-5.3-9.4-4-14.8S9,9.5,14.6,8c4.6-1.3,9.6-0.8,13.9,1.4c2.2,1.2,4.8,2.9,5.6,5.4s0.3,6.8-0.2,9.7
	c-0.4,2.5-1.1,5-2.2,7.3c-1.7,3-4.6,4.1-7.7,4.4c-2.7,0.2-5.4-0.2-8-1c-1.3-0.4-2.6-0.9-3.7-1.7c-1.6-1.3-2-3-2.4-4.9
	C8.8,22.7,8.8,16,12,10.8c1.6-2.4,3.1-4.7,5.9-5.6c2.8-0.7,5.7-1,8.6-0.6c3,0.4,5.2,1.3,6.7,4.1c1.6,2.8,3.5,5.5,3.6,8.1
	c0.2,4.8-4.7,10.1-8.2,12.6c-4.4,3.1-9.8,4.3-15,3.2c-2.6-0.6-5.3-1.6-7-3.7S4.1,23.6,3.4,21C2,15.6,2.6,9.3,8.1,6.6s11-1.2,16,0.8
	s10.8,3.3,13.1,7.7S37.1,28,32.7,30.5c-1.9,1.2-4.5,1.3-6.7,1.3l-7.6,0.3c-5.4,0.2-10.9-1.2-14.1-6.2C0.1,19.1,2.2,10.1,8.8,5.8
	c0.5-0.3,1.1-0.6,1.6-0.9c3.1-1.3,6.4-1,9.6-0.4c4.7,0.8,10.4,1.7,14.6,4.2s4.7,10.3,3.6,15.1c-1,5.1-4.2,9.4-8.8,11.7
	c-2.1,1-4.4,1.4-6.7,1.2c-2.6-0.3-5.1-1.7-7.7-2.1s-5-0.7-7.1-2.7c-1.8-1.7-3.4-3.6-4.7-5.8C0.7,21.1,2.3,13,6,9s8-8,13.2-7.7
	c2.9,0.2,5.6,0.9,8.2,2.3c1.9,1.1,3,3,4.7,4.5c2.1,1.5,3.9,3.3,5.4,5.4c1.5,2.3,3.1,5,3.6,7.8c1,5.2-3.7,10.1-7,13.5
	c-7,7.2-22.4,7-28-2C3.6,28.9,2.4,23.6,1.6,19c-0.5-2.8-0.9-6.7,1.1-9s4.8-3.2,7-4.3c4.8-2.3,11.1-5.1,16.4-4.2
	C26.7,1.6,27,0.6,26.4,0.5L26.4,0.5z"/>
<circle class="st0" cx="20.7" cy="20.9" r="18"/>
<path class="st1" d="M18.8,7.3c-1.1,6.8-1.7,14.6-0.1,21.4c1.1,4.6,6.5,4.7,10.8,4.3c0.9-0.1,0.9-1.6,0-1.5s-6.1,0.3-8-0.9
	s-1.8-5.2-2-7.6c-0.3-5.1-0.1-10.2,0.7-15.3C20.3,6.8,18.9,6.3,18.8,7.3z"/>
<path class="st1" d="M12.7,14.5c4.9,0.3,9.8,0.5,14.7,0.6c1,0.1,1-1.4,0-1.5c-4.9-0.1-9.8-0.3-14.7-0.6
	C11.7,12.9,11.7,14.4,12.7,14.5z"/>
<path class="st1" d="M19.8,7.7c-0.8,6.9-1.4,13.7,0.3,20.5c1.1,4.7,2.8,6.3,7.7,6c1-0.1,1-1.6,0-1.5c-10.4,0.7-7.2-18.8-6.5-25
	C21.4,6.7,19.9,6.8,19.8,7.7z"/>
<path class="st1" d="M13.4,15.8c2.7-0.1,5.4-0.1,8.1,0.2c2,0.1,4.1,0.7,6.1,0.3s0.5-1.6-0.4-1.5s-4.7-0.3-6.8-0.4
	c-2.3-0.2-4.7-0.2-7-0.1c-0.4,0-0.8,0.3-0.8,0.8S13,15.8,13.4,15.8L13.4,15.8z"/>
<path class="st1" d="M13.6,16.6c5-1.1,10.1-1.4,15.1-0.9l-0.2-1.5c-3,0.5-6.1,0.6-9.2,0.5c-0.4,0.1-0.7,0.4-0.7,0.8
	c0.1,2.9,1.3,5.7,1.3,8.6s-0.8,5.2-0.4,8c0.2,0.4,0.7,0.6,1.1,0.4c0.2-0.1,0.4-0.3,0.4-0.6c0-5.4,3-10.6,0.2-15.7
	c-0.2-0.4-0.6-0.5-1-0.3c-0.4,0.2-0.5,0.6-0.3,1c2.6,4.8-0.4,10-0.4,15l1.5-0.2c-0.5-3,0.5-5.8,0.4-8.7s-1.3-4.9-1.3-7.5l-0.8,0.7
	c3.2,0.1,6.4-0.1,9.6-0.6c0.9-0.1,0.6-1.4-0.2-1.4c-5.2-0.5-10.4-0.2-15.5,1C12.3,15.4,12.7,16.8,13.6,16.6L13.6,16.6z"/>
</svg>
