<?xml version="1.0" encoding="utf-8"?>
<!-- Generator: Adobe Illustrator 22.0.1, SVG Export Plug-In . SVG Version: 6.00 Build 0)  -->
<svg version="1.1" id="Layer_1" xmlns="http://www.w3.org/2000/svg" xmlns:xlink="http://www.w3.org/1999/xlink" x="0px" y="0px"
	 viewBox="0 0 40.5 42.9" style="enable-background:new 0 0 40.5 42.9;" xml:space="preserve">
<style type="text/css">
	.st0{fill:#EF4833;}
	.st1{fill:#FFFFFF;}
</style>
<title>twitter</title>
<path class="st0" d="M39.5,28c1.5-6.3-1.3-13.9-3.7-19.6c-1.1-2.5-2.2-5.5-4.6-7s-6.2-1.3-9.2-1C16.7,1.2,10.3,2.1,6,5.8
	s-6.1,10.9-6,16.7S3.5,33.6,8,38c1.7,1.7,3.7,3.2,5.9,4.2c2.9,1,5.6,0.4,8.2-0.8c2.9-1.1,5.5-2.7,7.8-4.7c1-1,1.8-2.3,2.9-3.3
	c1.1-1,2.6-1.8,3.7-3.1c3.3-4.1,4.9-10.7,2.8-15.6C37.3,9.8,32.7,3.6,27.1,1.8c-2.8-0.9-5.6-1.2-8.5-1c-3.1,0.4-5.8,2.5-8.2,4.4
	c-2,1.5-3.4,3.7-4.1,6.1c-0.3,1.7-0.8,3.3-1.3,4.9c-0.8,1.7-1.4,3.5-1.9,5.4C2.3,27.1,4.4,32.5,8.7,36c4.4,3.6,10.1,5.2,15.8,4.4
	c2.4-0.1,4.7-1.2,6.4-2.9c2-2.2,3-5.8,4-8.6c2-5.8,4.8-13.3,1.9-19.3c-2.5-4.9-7.2-8.2-12.6-8.9C18.5,0.2,13,3.2,10.1,8.2
	c-1.3,2.6-2.1,5.5-2.2,8.4c-0.2,3.4-0.4,7-0.4,10.5c0,6.2,3.4,10,9.1,11.9s10.3-0.2,13.2-5.3s6.4-11.9,6.9-18.2
	C37.3,9.2,35,4.2,29.4,2.3c-2.7-0.8-5.6-1-8.3-0.4c-2.9,0.5-6.4,1.3-8.8,3.1C7.8,8.2,6.5,15.4,7.1,20.5c0.8,5.7,3.7,10.9,8.2,14.5
	c1.9,1.5,4.1,3.1,6.4,3.5s5.6-1.4,8.1-2.5c2.5-1.1,4.6-2,5.6-4.6c1.1-3.2,1.5-6.6,1.2-10c-0.2-2.6-0.7-4.9-2.5-6.8
	c-2.2-2.4-5-4.2-8-5.4c-2.9-0.9-6-1.4-9.1-1.3c-2.8-0.1-6.5-0.1-8.8,1.6s-3.4,5-4.1,7.6c-0.9,3.1-1,6.3-0.4,9.4
	c1.4,6,7.9,7.8,13.3,8.9c2.7,0.6,6,1.4,8.7,0.3s4.3-3.5,5.6-5.7c2.9-4.9,3.7-10.8,2.3-16.4C32,7.8,28.2,4.3,22.6,2.7S10.8,1.8,7,6.9
	S2.4,17,4.2,22s6.3,11.4,11.5,13.7c5.2,2.3,11.7,0.1,15-4.2s5.4-9.6,4-15.3c-1.3-5.1-5-9.3-9.9-11.2C19.9,3,14.6,3.3,10,5.6
	c-0.6,0.3-0.1,1.1,0.5,0.8c8.7-4.4,20.3,0,23,9.7c1.4,5,0,9.7-3,13.8c-1.6,2.7-4.2,4.5-7.2,5.1c-3.1,1-6.5,0.6-9.1-1.3
	C9.8,30.6,6.5,26.1,4.9,21C3.4,16.3,5.4,10.1,8.6,6.5s10.1-4.2,15.3-2.3s8.7,6.7,9.3,12.6c0.6,4.8-0.6,9.7-3.3,13.7
	c-1.9,2.7-4.1,4.8-7.4,4.7c-2.8-0.2-5.5-0.7-8.1-1.5C11.7,33,8.6,32.1,6.7,30s-2.4-5.5-2.2-8.4c0.1-2.9,0.9-5.7,2.2-8.3
	c1.8-3.6,4.8-4.2,8.5-4.4c6.1-0.3,11.6,0.8,16.5,4.8c2.3,1.9,3.7,3.7,4.1,6.8c0.3,3.1,0.1,6.2-0.7,9.2c-0.8,2.9-2.7,4.1-5.3,5.3
	c-2.6,1.2-6,3.3-9.3,2c-4.4-1.9-8-5.4-10.2-9.7c-2.6-4.8-3-10.5-1.2-15.6c0.8-2.5,2.1-5,4.5-6.4C16,4,18.7,3.2,21.4,2.9
	c5.8-1,11.9,0.7,13.9,6.8s-0.5,11.6-2.9,16.7s-4,10.4-8.7,11.9S10.6,36.6,9,31.2c-0.5-2.3-0.6-4.6-0.3-6.9c0.1-2.8,0-5.5,0.3-8.2
	c0.4-5.9,3.3-11.4,9-13.6C23.2,0.7,28.8,2,32.7,5.8c4.8,4.4,4.7,10.1,3.3,16c-0.6,2.3-1.3,4.6-2.1,6.9c-0.9,2.6-1.8,6-3.7,8.1
	c-3.5,3.8-10.6,3.1-15,1.7S6,33,4.5,27.8c-0.7-2.4-0.8-4.9-0.1-7.3c0.7-2.4,1.9-4.5,2.5-6.9s1.3-5.2,3.6-7.2s4.9-3.9,7.5-4.5
	c5.7-1,11.4,1,15.3,5.3c3.5,4.1,7.1,9.1,5.8,14.7c-0.5,2.3-1.3,4.6-2.5,6.6c-1.4,2.3-3.7,3.3-5.4,5.3c-3.2,3.7-7.7,6.9-12.6,7.8
	c-4.9,0.9-10.4-4.3-13.6-8.2C-1.6,25.7-0.2,10,9.1,4.9c4.3-2.4,9.9-3.3,14.8-3.7c2.7-0.2,6-0.2,8,1.9S35,8.7,36,11.3
	c1.8,4.9,3.8,11.2,2.6,16.5c-0.1,0.3,0.1,0.5,0.4,0.6C39.2,28.4,39.5,28.3,39.5,28L39.5,28z"/>
<circle class="st0" cx="21" cy="21.1" r="18"/>
<path class="st1" d="M4.2,30.8c0.8-3.4,1.6-6.7,2.6-10c0.4-1.5,0.9-3,1.4-4.4l0.6-1.8c0.4-3.1,2.1-3.7,5.3-1.9
	c0,0.3,0.4,0.5,0.7,0.5c2,0,5.7,0.6,7.6-0.1s0.6-0.7,1.3-1.2s0-0.7,0.2-0.9c3.4-3,4.7-0.7,6.3,1.2c1.8,2.4,3.3,5.1,4.4,7.9
	c0.7,1.8,2.9,6,2.3,7.9c-1.3,4.1-8.5-4.2-9.7-4.8s-1.4-0.7-3.1-0.7c-3.6,0.3-7.1,0.3-10.7,0.1c-0.2-0.1-0.5,0.1-0.6,0.3
	c-1.1,2.3-2.6,4.5-4.3,6.4c-0.9,1-1.9,1.8-3,2.6c-1.4-1.9-1.6-4.5-0.6-6.6c0.5-2.4,4.3-14.7,7.2-13.8c0.5,0.2,1.3,2,2,2.5
	c0.6,0.2,1.2,0.4,1.8,0.4c1.5,0.4,6.6,0.9,7.9-0.4s0.2-1.9,0.6-2.6c3.6-6.1,7.4,1.7,8.4,3.6l2.1,4.4c0.7,1.5,1.3,3,1.9,4.5
	c-1.7,4.8-3.3,5.9-5,3.4s-2.9-4.7-6-5.7s-8.8-1.2-11.5-0.2s-1.8,1.3-2.5,2.8s-2.3,5.8-5,6.2c-0.9,1-1.6,0.8-2.2-0.7
	c0-1.7,0.2-3.4,0.7-5C5.9,22,9,12.5,12.6,12.4c1.3,0,3.6,1.4,5.1,1.5s4,0.5,5.2-0.1s1.2-1,1.5-1.1c6.2-2.9,6.2-0.9,8.3,3.2
	c1.1,2.3,2.9,5.3,3.2,7.8s0.5,3.5-2.1,4.7l-2.3-2.3c-1.2-1.1-2.6-2-4.1-2.7c-3.2-1.3-6.7-1.1-10.1-0.8l0.2,1.4
	c1.7-0.3,3.4-0.8,5-1.6c0.8-0.3,0.2-1.6-0.6-1.4l-1,0.4c-0.9,0.3-0.5,1.8,0.4,1.4l1-0.3l-0.6-1.4c-1.4,0.8-3,1.3-4.6,1.5
	c-0.8,0.1-0.7,1.5,0.2,1.5c4.9-0.4,9.2-0.3,13.1,3.1c1.3,1.1,2.8,3.4,4.6,4s3.6-2.3,3.4-4.5c-0.5-4.7-3.7-10.5-6-14.5
	s-3.4-5.3-7-3.7c-1,0.5-1.2,1.1-2,1.8s2.3,1.1-2.2,2.2c-1.6,0.2-3.2,0.1-4.8-0.2c-5.2-1.2-5.4-3.4-8.1,1.8C7.1,16.3-1.5,34,5.5,32.8
	c3.5-0.6,5.6-4.4,7.2-7s4.3-3.2,8.3-3.1s4.8,0,7.1,2.4c0.9,1.1,1.8,2.2,2.6,3.3c1.7,1.9,4.1,3.6,6.5,1.6s0.8-7-0.4-9.8
	S27.4-0.5,23.4,9.4c-0.1,0.2-0.6,3-0.7,3.1s-4.2,0.6-5.1,0.4c-4.9-0.8-2.7-2.5-5.5-3.7s-3.9,3.7-4.7,5.5c-1.3,2.8-2.4,5.6-3.4,8.5
	c-0.8,2.3-2.6,6.1-1.5,8.6s2.9,2.1,4.9,0.6c1.8-1.5,3.4-3.3,4.7-5.2c2.4-3.6,6.3-3.2,10.4-2.9s5.5,2.4,9.1,4.8
	c1.8,1.5,4.3,1.9,6.5,1.2c0.4-0.2,0.6-0.6,0.5-1c-1.1-6.9-3.5-13.8-8.2-19.2c-1.2-1.4-3-3.6-5.1-3.1s-2.3,3.2-3.9,4.1
	c-1.9,1.1-4.3,0.9-6.1-0.3c-0.5-0.3-0.5-1.3-1-1.7s-2.4-1-3.9,0S7.4,13.8,6.7,16c-1.6,4.7-3,9.5-4,14.4C2.5,31.3,3.9,31.7,4.2,30.8
	L4.2,30.8z"/>
<path class="st1" d="M18,18.3c0,1.6,0.2,3.2,0.3,4.8c0,0.2,0.1,0.4,0.4,0.5c0.2,0,0.4-0.1,0.4-0.4l0,0c0.5-1.5,0.5-3.1-0.1-4.6
	c-0.2-0.4-0.9-0.3-0.8,0.2l1.1,3.7c0.2,0.4,0.8,0.4,0.8-0.1s-0.1-2.7-0.1-4.2h-0.7c-0.1,1.5,0.1,3,0.6,4.4c0.2,0.4,0.8,0.4,0.8-0.1
	c0-1.3,0-2.6-0.2-3.9h-0.7l0.7,4c0.1,0.5,0.7,0.3,0.7-0.1c0.2-1.4,0.2-2.9-0.1-4.3c-0.1-0.4-0.7-0.2-0.7,0.1
	c-0.2,1.5-0.1,2.9,0.1,4.4c-0.1,0.2,0,0.4,0.2,0.5s0.4,0,0.5-0.2c0.1-0.1,0.1-0.3,0-0.4v-3.6c-0.1-0.2-0.3-0.3-0.5-0.2
	c-0.1,0-0.1,0.1-0.2,0.1c-0.4,0.9-0.6,1.8-0.8,2.7h0.7c-0.3-0.8-0.3-1.6-0.1-2.4c0.1-0.3-0.2-0.5-0.5-0.5c-1,0.3-2.1,0.3-3.2,0.2
	l0.2,0.5l2.6-4.2h-0.5c1.4,1,3.3,2,4,3.5l0.3-0.5c-1.8,0.1-3.7,0.1-5.5-0.1l0.4,0.3c0-0.7,0.3-1.4,0.7-2c0.2-0.4-0.4-0.7-0.7-0.3
	l-1.2,1.7c-0.1,0.2,0.1,0.4,0.3,0.5c0.1,0,0.2,0,0.2,0l3.4-2l-0.5-0.3l-0.7,0.5H19v1.6l1.3-0.8L20,16.8l-1.4,0.4v0.7
	c0.3-0.3,0.7-0.5,1.1-0.7V18c0.8-0.2,1.7-0.1,2.5,0.3c0.4,0.1,0.6-0.5,0.3-0.7s-3.5-0.9-4.6-2.3l-0.5,0.6l4.1,2.6v-0.7
	c-1.6,0.9-1.9-1.5-1.8-2.5c0-0.2-0.2-0.4-0.5-0.3c-0.1,0-0.2,0.1-0.2,0.1c-0.5,1-0.9,2-1.2,3c-0.1,0.5,0.6,0.7,0.7,0.2l0.6-1.5
	c0.2-0.4-0.3-0.6-0.6-0.4L17,17.6l0.5,0.6c0.4-0.3,0.8-0.6,1.3-0.8l-0.6-0.3c0.1,0.4,0,0.9-0.1,1.3l0.7,0.2v-0.8
	c0.1-0.2-0.1-0.4-0.3-0.5c0,0,0,0,0,0c-0.6,0-0.6,0.1-1,0.4c-0.2,0.1-0.3,0.2-0.2,0.4c0.1,0.2,0.2,0.3,0.4,0.2l0,0
	c1,0.4,2.1-0.2,3.1,0.2s0.7-0.2,0.4-0.6c-0.5-0.4-0.9-0.9-1.1-1.5l-0.5,0.5c0.8,0.3,1.5,0.8,2,1.5v-0.6c-0.4,0.5-1.4,0.4-2,0.5h-0.9
	c-0.4,0.1-0.8,0.1-1.1-0.2L17,17.5c-0.3,0.4-0.4,0.8-0.5,1.2c0,0.2,0,0.4,0.3,0.4c2.1,0.6,3.6-1.4,2.9-3.4l-0.6,0.5
	c1,0.5,1.8,1.3,2.4,2.3l0.3-0.6c-1.3,0.4-2.7,0.7-4.1,0.8l0.3,0.5c0.3-0.4,0.7-0.7,1.1-1c0.2-0.1,0.3-0.4,0.2-0.5
	c-0.1-0.2-0.4-0.3-0.6-0.2c-0.5,0.4-0.9,0.9-1.3,1.4c-0.1,0.1-0.1,0.3,0,0.4c0.1,0.1,0.2,0.1,0.3,0.1c1.5-0.1,2.9-0.3,4.3-0.8
	c0.2,0,0.3-0.3,0.2-0.5c-0.7-1.1-1.6-1.9-2.7-2.6c-0.3-0.1-0.7,0.1-0.5,0.4c0.2,0.3-0.4,2.9-2,2.5l0.2,0.5l0.4-0.8
	c0.2-0.2,0.2-0.4,0-0.6c-0.2-0.2-0.4-0.2-0.6,0c-0.6,0.6-0.2,1.4,0.6,1.6c1,0.1,2.1,0,3.1-0.3c0.5,0,1.1-0.2,1.5-0.5
	c0.1-0.2,0.1-0.4,0-0.6c-0.6-0.7-1.4-1.2-2.2-1.6c-0.4-0.1-0.7,0.2-0.5,0.5c0.3,0.7,0.7,1.3,1.2,1.8l0.4-0.6
	c-1.1-0.6-2.1,0.1-3.2-0.3v0.6h0.5L18,17.6v0.8c-0.1,0.5,0.6,0.7,0.7,0.2c0.1-0.5,0.2-1,0.1-1.5c0-0.3-0.3-0.5-0.5-0.4
	c-0.5,0.2-1,0.6-1.4,1c-0.4,0.2,0.1,0.8,0.4,0.6l1.6-1.4l-0.6-0.3l-0.6,1.5l0.7,0.2c0.3-1,0.7-1.9,1.1-2.8l-0.7-0.2
	c0,1.6,0.8,4.3,3,3.2c0.2-0.2,0.2-0.5,0-0.7l-4.1-2.6c-0.2,0-0.4,0.1-0.5,0.3c0,0.1,0,0.2,0.1,0.3c1.1,1.5,3.1,1.5,4.7,2.4l0.3-0.7
	c-0.9-0.3-1.8-0.4-2.7-0.3c-0.3,0.1-0.5,0.7-0.1,0.7s1.6-0.2,1.2-1.1c-0.4-0.9-2,0.1-2.5,0.4c-0.2,0.1-0.2,0.4-0.1,0.6
	c0,0.1,0.1,0.1,0.2,0.1c0.8,0.2,1.6,0,2.1-0.6c0.2-0.2,0.1-0.7-0.3-0.6c-0.8,0-1.6,0.4-2,1.1c-0.1,0.2,0,0.5,0.2,0.5
	s1.6-1.2,1.2-2.1c-0.4-0.9-0.4-0.2-0.6-0.1c-0.5,0.4-0.5,1.1-0.1,1.5c0.1,0.2,0.3,0.3,0.5,0.4c1.1,0.3,1.6-0.9,1.5-1.8
	c0-0.2,0-0.3-0.2-0.4c-0.1,0-0.2,0-0.3,0.1l-3.5,1.9l0.6,0.5l1.2-1.7l-0.7-0.3c-0.5,0.7-0.7,1.5-0.8,2.3c0,0.2,0.2,0.4,0.4,0.4
	c0,0,0,0,0,0c1.8,0.2,3.7,0.3,5.5,0.1c0.3,0,0.5-0.3,0.3-0.5s-2.8-2.8-4.2-3.8c-0.2-0.1-0.4,0-0.5,0.1c-0.9,1.4-1.8,2.8-2.6,4.3
	s0,0.5,0.2,0.5c1.2,0.2,2.4,0.1,3.6-0.1l-0.4-0.5c-0.3,0.9-0.2,1.9,0.1,2.8c0.1,0.2,0.4,0.3,0.5,0.2c0.1,0,0.1-0.1,0.2-0.2
	c0.2-0.9,0.5-1.8,0.8-2.7h-0.8v3.7H21c-0.2-1.5-0.2-2.9-0.1-4.4h-0.7c0.2,1.4,0.3,2.7,0.1,4.1H21l-0.7-4c0-0.4-0.8-0.3-0.7,0.1
	c0.1,1.3,0.2,2.6,0.1,3.9h0.8c-0.4-1.4-0.7-2.8-0.7-4.2c0-0.4-0.7-0.4-0.7,0c-0.1,1.4-0.1,2.8,0,4.2h0.8l-1.1-3.7l-0.8,0.2
	c0.6,1.3,0.7,2.9,0.1,4.2h0.8c-0.2-1.6-0.3-3.2-0.4-4.8c0.1-0.2,0-0.4-0.2-0.5s-0.4,0-0.5,0.2c-0.1,0.1-0.1,0.3,0,0.4L18,18.3z"/>
</svg>
