<?xml version="1.0" encoding="utf-8"?>
<!-- Generator: Adobe Illustrator 22.0.1, SVG Export Plug-In . SVG Version: 6.00 Build 0)  -->
<svg version="1.1" id="Layer_1" xmlns="http://www.w3.org/2000/svg" xmlns:xlink="http://www.w3.org/1999/xlink" x="0px" y="0px"
	 viewBox="0 0 42.2 41" style="enable-background:new 0 0 42.2 41;" xml:space="preserve">
<style type="text/css">
	.st0{fill:#EF4833;}
	.st1{fill:#FFFFFF;}
</style>
<title>twitter</title>
<path class="st0" d="M15.8,40.5c6.2,1,13.4-2.3,18.8-5.1c2.3-1.2,5.3-2.6,6.5-5s0.9-5.9,0.5-8.6c-1-5.6-2.4-12.4-6.5-16.6
	s-11-5.4-16.6-4.9S8.3,4.2,4.5,8.9c-1.7,2-3.4,4.2-4.2,6.8s0,5.7,1.3,8.3c1.3,2.8,3,5.4,5.2,7.5c1.1,1,2.3,1.7,3.4,2.7
	c1,1.3,2.1,2.4,3.3,3.5c4.4,3.2,11.2,4.1,16,1.3c4.8-2.8,10.2-7.9,11.2-14.1c0.5-2.9,0.8-6.3-0.3-9c-1-2.4-2.5-4.6-4.4-6.4
	c-1.8-2.1-4.3-3.4-7-3.8c-3.2-0.5-6.3-2.1-9.5-2.4C14.2,2.8,9.2,5.6,6.1,9.8c-3.2,4.8-4.4,10.8-3.3,16.5c0.5,2.4,1.4,4.8,3.3,6.3
	s6.3,2.7,9.3,3.5c5.6,1.5,12.8,3.4,18.1,0.3c5.1-3.1,8.1-8.8,7.7-14.9c-0.5-5.4-3.9-10.2-8.8-12.3c-2.7-1.1-5.7-1.5-8.6-1.3
	c-3.5,0.1-7.1,0-10.5,0.4C7.6,9,4.5,13.4,3.4,19s1.3,9.8,6.2,12.2s12.5,5.9,18.9,5.6s10.2-2.9,11.6-8.3c0.6-2.8,0.5-5.7-0.2-8.4
	c-0.7-2.8-1.8-6.4-3.6-8.7C32.7,7,25.2,6.3,20.2,7.5c-5.3,1.4-9.8,4.7-12.9,9.3c-1.4,2-3,4.8-2.9,7.4c0.1,2.6,2.3,6.1,3.7,8.6
	c1.4,2.5,2.3,3.4,4.6,4.1c3.1,0.8,6.4,0.9,9.5,0.3c2.6-0.2,5.1-1.5,6.8-3.6c2.1-2.5,3.6-5.5,4.4-8.7c0.6-3.4,0.7-6.9,0.3-10.3
	C33.4,12.1,33,9,31.1,7.2c-4-3.7-12.2-4.4-16.9-2.5s-6.6,9.4-7.2,14.7c-0.3,2.6-0.7,5.6,0.5,8s4.2,4.2,6.5,5.3
	c5.1,2.4,10.9,2.7,16.2,0.6c5.5-2.3,8.3-6.6,9.2-12.4s-0.2-11-4.8-14.3S24,2.2,19.1,4.5S9,11.3,6.9,16.4s0,11.9,4.3,15
	s9.6,5,15.1,3.4c5-1.4,9-5.3,10.7-10.3c1.7-5.1,1.2-10.7-1.5-15.3C35.5,9,35.2,8.8,35,8.9c-0.3,0.1-0.4,0.3-0.4,0.6
	c0,0.1,0.1,0.2,0.2,0.3c5,8.7,1.4,21-8.5,24.1c-4.9,1.5-9.4,0.1-13.6-2.6S5.5,20.8,8.5,15.4C11.2,11,15,7.5,19.6,5.3
	c4.6-2.1,10.5-0.8,14.5,2.1s5.3,9.4,4,14.8S33.2,31.5,27.7,33c-4.7,1.3-9.6,0.8-13.9-1.4c-2.2-1.2-4.8-2.9-5.6-5.4s-0.3-6.8,0.2-9.7
	c0.4-2.5,1.1-5,2.2-7.3c1.7-3,4.6-4.1,7.7-4.4c2.7-0.2,5.4,0.2,8,1c1.3,0.4,2.6,0.9,3.7,1.7c1.6,1.3,2,3,2.4,4.9
	c1.1,5.9,1.1,12.6-2.1,17.8c-1.6,2.4-3.1,4.7-5.9,5.6c-2.8,0.7-5.7,1-8.6,0.6c-3-0.4-5.2-1.3-6.7-4.1s-3.5-5.5-3.6-8.1
	c-0.2-4.8,4.7-10.1,8.2-12.6c4.4-3.1,9.8-4.3,15-3.2c2.6,0.6,5.4,1.6,7,3.7s2.6,5.3,3.3,7.9c1.4,5.4,0.8,11.7-4.7,14.4
	s-11,1.2-16.1-0.8S7.3,30.3,5,25.9S5.1,13,9.6,10.5c1.9-1.2,4.5-1.3,6.7-1.3l7.6-0.3c5.5-0.2,10.9,1.2,14.1,6.2
	c4.1,6.9,2.1,15.9-4.6,20.1c-0.5,0.3-1.1,0.6-1.6,0.9c-3.1,1.3-6.4,1-9.6,0.4c-4.7-0.8-10.4-1.7-14.6-4.2S2.8,22,3.9,17.2
	c1-5.1,4.2-9.4,8.8-11.7c2.1-1,4.4-1.4,6.7-1.2C22,4.6,24.5,6,27.1,6.4s5,0.7,7.1,2.7c1.8,1.7,3.4,3.6,4.7,5.8
	c2.7,5,1.1,13.1-2.6,17.1c-3.7,4-8,8-13.2,7.7c-2.9-0.2-5.6-0.9-8.2-2.3c-1.9-1.1-3-3-4.7-4.5c-2.1-1.5-3.9-3.3-5.5-5.4
	c-1.5-2.3-3.1-5-3.6-7.8c-1-5.2,3.7-10.1,7-13.5c7-7.2,22.4-7,28,2c2.5,3.9,3.7,9.2,4.5,13.8c0.5,2.8,0.9,6.7-1.1,9s-4.8,3.2-7,4.3
	c-4.8,2.3-11.1,5.1-16.5,4.2C15.5,39.4,15.2,40.4,15.8,40.5L15.8,40.5z"/>
<circle class="st0" cx="21.9" cy="19.8" r="18"/>
<path class="st1" d="M19.9,32.6c-1-5.1-1.4-10.4-1.3-15.6c0-2.2-0.3-5.2,0.5-7.4s11.6-4.4,12.7-0.3c0.1,0.4,0.5,0.6,0.9,0.5
	c0.4-0.1,0.6-0.5,0.5-0.9c-0.9-3.5-4.7-3.9-7.9-3.6s-6.1,0.1-7.4,2.6s-0.9,8.7-0.8,12c0.1,4.4,0.5,8.8,1.3,13.1
	C18.6,33.9,20,33.5,19.9,32.6L19.9,32.6z"/>
<path class="st1" d="M11.2,22.2c5.2-0.3,10.5-0.4,15.7-0.5c0.9-0.1,0.9-1.6,0-1.5c-5.2,0.1-10.5,0.2-15.7,0.5
	C10.3,20.8,10.3,22.3,11.2,22.2z"/>
<path class="st1" d="M21.8,31.7c-0.7-4.3-1.8-8.6-2.2-12.9c-0.2-2.2-0.1-4.5,0.4-6.7c0.8-2.9,2.9-5.3,5.8-6.3c1.3-0.5,7.2,0.5,5.9,3
	c-0.4,0.9,0.9,1.6,1.3,0.8c3.1-6.1-10-6.8-12.8-3c-4.9,6.8-1,18.1,0.1,25.5C20.5,33,21.9,32.6,21.8,31.7L21.8,31.7z"/>
<path class="st1" d="M12,21.1c2.5,0.1,4.9,0.1,7.4,0s4.9-0.8,7.2-0.4s1.4-1.3,0.4-1.5c-2.2-0.1-4.4,0-6.5,0.3
	c-2.8,0.2-5.7,0.2-8.5,0.1c-0.4,0.2-0.6,0.6-0.5,1C11.6,20.9,11.8,21.1,12,21.1L12,21.1z"/>
<path class="st1" d="M11.8,20.4c5.4,0.9,10.9,1.2,16.4,0.8c0.4,0.2,0.9-0.1,1-0.5c0.2-0.4-0.1-0.9-0.5-1c-0.2-0.1-0.4-0.1-0.6,0
	c-3.3-0.4-6.6-0.5-9.9-0.4L19,20c0.1-2.2,1.2-4.1,1.4-6.2S19.5,9.1,20,6.6l-1.5-0.2c0,4.1,3,8.5,0.4,12.3c-0.5,0.8,0.8,1.6,1.3,0.8
	C23.1,15.2,20,11,20,6.4c0-0.8-1.3-1.1-1.4-0.2c-0.5,2.4,0.2,4.2,0.3,6.5s-1.3,4.8-1.4,7.3c0,0.4,0.4,0.8,0.8,0.8
	c3.3-0.1,6.6,0,9.9,0.4v-1.5c-5.3,0.4-10.7,0.2-16-0.8C11.3,18.8,10.9,20.2,11.8,20.4L11.8,20.4z"/>
</svg>
