<?xml version="1.0" encoding="utf-8"?>
<!-- Generator: Adobe Illustrator 22.0.1, SVG Export Plug-In . SVG Version: 6.00 Build 0)  -->
<svg version="1.1" id="Layer_1" xmlns="http://www.w3.org/2000/svg" xmlns:xlink="http://www.w3.org/1999/xlink" x="0px" y="0px"
	 viewBox="0 0 232.672 42.884" style="enable-background:new 0 0 232.672 42.884;" xml:space="preserve">
<style type="text/css">
	.st0{fill:#337888;}
	.st1{enable-background:new    ;}
</style>
<title>sponsor-massey</title>
<rect x="0.07" y="32.193" class="st0" width="96.282" height="0.425"/>
<rect x="72.387" y="23.472" class="st0" width="1.744" height="0.227"/>
<polygon class="st0" points="13.907,16.608 14.263,15.49 13.915,13.374 "/>
<polygon class="st0" points="13.538,15.497 13.906,16.609 13.914,13.375 "/>
<polygon class="st0" points="13.56,17.728 13.908,19.845 13.906,16.608 "/>
<polygon class="st0" points="13.908,19.845 14.284,17.721 13.906,16.609 "/>
<polygon class="st0" points="12.012,13.99 12.012,13.99 13.906,16.607 13.538,15.496 "/>
<polygon class="st0" points="12.012,13.99 12.956,15.929 13.906,16.607 "/>
<polygon class="st0" points="13.906,16.608 14.284,17.721 15.81,19.228 "/>
<polygon class="st0" points="13.906,16.608 15.81,19.228 14.866,17.289 "/>
<polygon class="st0" points="10.835,15.607 10.835,15.607 13.906,16.608 12.957,15.929 "/>
<polygon class="st0" points="10.835,15.607 12.739,16.608 13.906,16.608 "/>
<polygon class="st0" points="13.906,16.608 14.866,17.289 16.987,17.611 "/>
<polygon class="st0" points="15.084,16.608 13.906,16.608 16.988,17.611 "/>
<polygon class="st0" points="12.739,16.608 10.833,17.606 13.906,16.608 "/>
<polygon class="st0" points="10.833,17.606 12.97,17.307 13.906,16.608 "/>
<polygon class="st0" points="13.907,16.608 15.084,16.608 16.99,15.612 "/>
<polygon class="st0" points="14.853,15.912 13.906,16.609 16.99,15.612 "/>
<polygon class="st0" points="13.906,16.608 12.969,17.308 12.007,19.225 "/>
<polygon class="st0" points="13.906,16.608 12.007,19.225 13.56,17.728 "/>
<polygon class="st0" points="15.815,13.994 13.906,16.608 14.853,15.912 "/>
<polygon class="st0" points="15.815,13.994 14.263,15.491 13.906,16.608 "/>
<polygon class="st0" points="13.389,8.747 13.298,8.851 13.57,9.51 13.747,9.615 14.84,9.615 14.933,9.51 14.661,8.851 
	14.483,8.747 "/>
<polygon class="st0" points="15.135,8.868 15.068,8.944 15.264,9.418 15.392,9.492 16.18,9.492 16.246,9.418 16.05,8.944 
	15.921,8.868 "/>
<polygon class="st0" points="16.449,8.919 16.403,8.971 16.542,9.305 16.63,9.357 17.181,9.357 17.228,9.305 17.091,8.971 
	17.001,8.919 "/>
<polygon class="st0" points="17.435,8.951 17.402,8.988 17.498,9.22 17.561,9.258 17.947,9.258 17.979,9.22 17.883,8.988 
	17.819,8.951 "/>
<polygon class="st0" points="12.083,8.868 12.015,8.944 12.213,9.418 12.341,9.492 13.126,9.492 13.193,9.418 12.997,8.944 
	12.87,8.868 "/>
<polygon class="st0" points="11.081,9.002 11.034,9.055 11.169,9.387 11.261,9.44 11.813,9.44 11.859,9.387 11.721,9.055 
	11.63,9.002 "/>
<polygon class="st0" points="10.316,9.103 10.282,9.14 10.377,9.373 10.441,9.409 10.826,9.409 10.858,9.373 10.764,9.14 
	10.699,9.103 "/>
<g class="st1">
	<path class="st0" d="M128.884,15.35c-0.04,0.359-0.13,0.694-0.271,1.005c-0.14,0.31-0.33,0.578-0.57,0.805s-0.533,0.403-0.877,0.53
		c-0.344,0.126-0.742,0.189-1.196,0.189c-0.494,0-0.938-0.083-1.333-0.25c-0.394-0.166-0.728-0.41-1.001-0.729
		c-0.274-0.32-0.486-0.712-0.637-1.175c-0.149-0.464-0.225-0.992-0.225-1.585c0-0.601,0.08-1.134,0.24-1.601s0.384-0.859,0.671-1.18
		s0.626-0.563,1.017-0.73c0.391-0.166,0.813-0.25,1.268-0.25c0.44,0,0.821,0.057,1.142,0.17c0.32,0.114,0.593,0.273,0.816,0.48
		s0.404,0.453,0.541,0.74c0.137,0.286,0.242,0.604,0.315,0.949l-0.9,0.15c-0.06-0.26-0.139-0.495-0.235-0.705
		s-0.221-0.388-0.371-0.535c-0.15-0.146-0.33-0.258-0.541-0.335c-0.211-0.076-0.466-0.114-0.767-0.114
		c-0.354,0-0.67,0.071-0.947,0.215s-0.512,0.343-0.702,0.6s-0.336,0.566-0.436,0.93c-0.101,0.364-0.15,0.766-0.15,1.205
		c0,0.44,0.05,0.842,0.15,1.205c0.1,0.363,0.245,0.675,0.436,0.936c0.19,0.26,0.425,0.46,0.702,0.6s0.596,0.21,0.957,0.21
		c0.327,0,0.606-0.041,0.837-0.125c0.23-0.083,0.421-0.201,0.571-0.354s0.27-0.337,0.356-0.551c0.086-0.213,0.149-0.446,0.19-0.699
		H128.884z"/>
</g>
<g class="st1">
	<path class="st0" d="M132.234,17.859c-0.394,0-0.744-0.063-1.051-0.19c-0.307-0.126-0.566-0.307-0.779-0.54
		c-0.214-0.233-0.377-0.52-0.49-0.859s-0.17-0.721-0.17-1.141s0.06-0.8,0.18-1.14s0.29-0.63,0.51-0.87
		c0.221-0.24,0.485-0.425,0.795-0.555c0.311-0.13,0.655-0.195,1.035-0.195c0.387,0,0.733,0.063,1.04,0.19
		c0.307,0.126,0.568,0.308,0.785,0.545c0.217,0.236,0.382,0.521,0.495,0.854c0.113,0.334,0.17,0.71,0.17,1.13
		c0,0.427-0.059,0.811-0.175,1.15c-0.117,0.34-0.283,0.63-0.5,0.87s-0.481,0.425-0.795,0.555S132.62,17.859,132.234,17.859z
		 M132.244,17.14c0.278,0,0.517-0.051,0.715-0.15c0.199-0.1,0.363-0.24,0.492-0.42s0.224-0.396,0.283-0.646s0.09-0.524,0.09-0.824
		c0-0.294-0.03-0.563-0.09-0.811c-0.06-0.246-0.154-0.458-0.283-0.635s-0.293-0.315-0.492-0.415c-0.198-0.1-0.437-0.15-0.715-0.15
		s-0.516,0.051-0.711,0.15s-0.357,0.238-0.486,0.415c-0.13,0.177-0.224,0.389-0.283,0.635c-0.061,0.247-0.09,0.521-0.09,0.82
		s0.029,0.573,0.09,0.82c0.06,0.246,0.152,0.46,0.278,0.64c0.125,0.18,0.288,0.32,0.486,0.42
		C131.728,17.089,131.966,17.14,132.244,17.14z"/>
	<path class="st0" d="M135.943,10.56h0.87v7.14h-0.87V10.56z"/>
	<path class="st0" d="M138.193,10.56h0.87v7.14h-0.87V10.56z"/>
	<path class="st0" d="M144.894,16.249c-0.087,0.5-0.309,0.894-0.665,1.181c-0.356,0.286-0.868,0.43-1.535,0.43
		c-0.786,0-1.39-0.238-1.81-0.715s-0.63-1.142-0.63-1.995c0-0.446,0.06-0.844,0.18-1.19s0.288-0.637,0.505-0.87
		s0.476-0.411,0.775-0.534c0.3-0.124,0.626-0.186,0.979-0.186c0.4,0,0.743,0.063,1.03,0.19c0.286,0.126,0.521,0.302,0.705,0.524
		c0.184,0.224,0.32,0.488,0.41,0.795s0.135,0.644,0.135,1.011v0.439h-3.84c0,0.26,0.035,0.502,0.104,0.726
		c0.07,0.223,0.17,0.416,0.301,0.579c0.13,0.164,0.291,0.292,0.484,0.386c0.193,0.093,0.417,0.14,0.67,0.14
		c0.434,0,0.75-0.081,0.95-0.245c0.2-0.163,0.337-0.385,0.41-0.665H144.894z M144.104,14.68c0-0.247-0.026-0.471-0.08-0.671
		c-0.053-0.199-0.137-0.371-0.25-0.515s-0.26-0.255-0.439-0.335c-0.181-0.08-0.397-0.12-0.65-0.12c-0.46,0-0.818,0.141-1.075,0.42
		c-0.257,0.28-0.408,0.687-0.455,1.221H144.104z"/>
	<path class="st0" d="M147.004,18.18c0.073,0.312,0.215,0.536,0.425,0.67c0.21,0.133,0.538,0.199,0.985,0.199
		c0.546,0,0.925-0.151,1.135-0.455c0.21-0.303,0.315-0.744,0.315-1.324v-0.551c-0.2,0.28-0.442,0.497-0.726,0.65
		s-0.615,0.23-0.995,0.23c-0.373,0-0.698-0.068-0.975-0.205s-0.505-0.323-0.686-0.561c-0.18-0.236-0.314-0.512-0.404-0.825
		c-0.09-0.312-0.135-0.649-0.135-1.01c0-0.394,0.053-0.751,0.159-1.075c0.106-0.323,0.261-0.6,0.46-0.83
		c0.2-0.229,0.442-0.408,0.726-0.534c0.283-0.127,0.602-0.19,0.955-0.19c0.286,0,0.571,0.059,0.854,0.175
		c0.283,0.117,0.542,0.332,0.775,0.646v-0.66h0.859v4.33c0,0.446-0.031,0.848-0.095,1.205c-0.063,0.356-0.18,0.66-0.35,0.91
		s-0.405,0.441-0.705,0.574c-0.3,0.134-0.687,0.2-1.16,0.2c-0.68,0-1.214-0.121-1.6-0.365c-0.387-0.243-0.614-0.645-0.681-1.204
		H147.004z M149.884,14.924c0-0.341-0.04-0.626-0.119-0.857c-0.08-0.23-0.189-0.419-0.329-0.566
		c-0.14-0.146-0.301-0.252-0.483-0.315s-0.374-0.096-0.573-0.096c-0.213,0-0.41,0.035-0.593,0.105
		c-0.184,0.07-0.343,0.183-0.479,0.336c-0.137,0.154-0.243,0.352-0.319,0.592s-0.114,0.531-0.114,0.872
		c0,0.348,0.041,0.642,0.124,0.883c0.083,0.24,0.191,0.435,0.324,0.581c0.133,0.147,0.287,0.254,0.464,0.321
		c0.176,0.066,0.354,0.1,0.533,0.1c0.226,0,0.434-0.036,0.623-0.11c0.189-0.073,0.354-0.184,0.493-0.33
		c0.14-0.147,0.249-0.333,0.329-0.557c0.079-0.225,0.119-0.486,0.119-0.787V14.924z"/>
	<path class="st0" d="M156.544,16.249c-0.087,0.5-0.309,0.894-0.665,1.181c-0.357,0.286-0.869,0.43-1.535,0.43
		c-0.787,0-1.391-0.238-1.811-0.715s-0.63-1.142-0.63-1.995c0-0.446,0.061-0.844,0.181-1.19c0.119-0.347,0.288-0.637,0.505-0.87
		c0.216-0.233,0.475-0.411,0.774-0.534c0.3-0.124,0.627-0.186,0.98-0.186c0.399,0,0.743,0.063,1.03,0.19
		c0.286,0.126,0.521,0.302,0.704,0.524c0.184,0.224,0.32,0.488,0.41,0.795s0.136,0.644,0.136,1.011v0.439h-3.841
		c0,0.26,0.035,0.502,0.105,0.726c0.07,0.223,0.17,0.416,0.3,0.579c0.13,0.164,0.292,0.292,0.485,0.386
		c0.193,0.093,0.416,0.14,0.67,0.14c0.433,0,0.75-0.081,0.95-0.245c0.199-0.163,0.336-0.385,0.409-0.665H156.544z M155.754,14.68
		c0-0.247-0.027-0.471-0.08-0.671c-0.054-0.199-0.137-0.371-0.25-0.515s-0.261-0.255-0.44-0.335s-0.396-0.12-0.649-0.12
		c-0.46,0-0.819,0.141-1.075,0.42c-0.257,0.28-0.408,0.687-0.455,1.221H155.754z"/>
</g>
<g class="st1">
	<path class="st0" d="M162.323,17.859c-0.394,0-0.743-0.063-1.05-0.19c-0.307-0.126-0.567-0.307-0.78-0.54
		c-0.214-0.233-0.377-0.52-0.49-0.859s-0.17-0.721-0.17-1.141s0.06-0.8,0.181-1.14c0.119-0.34,0.289-0.63,0.51-0.87
		c0.22-0.24,0.484-0.425,0.795-0.555c0.31-0.13,0.654-0.195,1.035-0.195c0.387,0,0.732,0.063,1.039,0.19
		c0.307,0.126,0.568,0.308,0.785,0.545c0.217,0.236,0.382,0.521,0.495,0.854c0.113,0.334,0.17,0.71,0.17,1.13
		c0,0.427-0.058,0.811-0.175,1.15s-0.283,0.63-0.5,0.87s-0.481,0.425-0.795,0.555S162.709,17.859,162.323,17.859z M162.333,17.14
		c0.278,0,0.517-0.051,0.716-0.15c0.198-0.1,0.362-0.24,0.492-0.42c0.129-0.18,0.223-0.396,0.282-0.646s0.09-0.524,0.09-0.824
		c0-0.294-0.03-0.563-0.09-0.811c-0.06-0.246-0.153-0.458-0.282-0.635c-0.13-0.177-0.294-0.315-0.492-0.415
		c-0.199-0.1-0.438-0.15-0.716-0.15s-0.515,0.051-0.71,0.15s-0.358,0.238-0.487,0.415c-0.13,0.177-0.224,0.389-0.283,0.635
		c-0.06,0.247-0.089,0.521-0.089,0.82s0.029,0.573,0.089,0.82c0.06,0.246,0.152,0.46,0.278,0.64c0.125,0.18,0.288,0.32,0.486,0.42
		C161.816,17.089,162.055,17.14,162.333,17.14z"/>
</g>
<g class="st1">
	<path class="st0" d="M166.243,13.219h-0.811v-0.689h0.811v-0.45c0-0.28,0.041-0.52,0.125-0.72c0.083-0.2,0.196-0.365,0.34-0.495
		s0.31-0.227,0.5-0.29c0.189-0.063,0.392-0.095,0.604-0.095c0.153,0,0.301,0.008,0.44,0.024s0.286,0.049,0.44,0.096l-0.141,0.68
		c-0.106-0.033-0.208-0.055-0.305-0.065c-0.097-0.01-0.191-0.015-0.285-0.015c-0.233,0-0.434,0.062-0.6,0.185
		c-0.167,0.124-0.25,0.349-0.25,0.676v0.47h1.31v0.689h-1.31v4.48h-0.87V13.219z"/>
	<path class="st0" d="M177.482,15.35c-0.04,0.359-0.13,0.694-0.271,1.005c-0.14,0.31-0.33,0.578-0.57,0.805s-0.533,0.403-0.877,0.53
		c-0.344,0.126-0.742,0.189-1.196,0.189c-0.494,0-0.938-0.083-1.333-0.25c-0.394-0.166-0.728-0.41-1.001-0.729
		c-0.274-0.32-0.486-0.712-0.637-1.175c-0.149-0.464-0.225-0.992-0.225-1.585c0-0.601,0.08-1.134,0.24-1.601s0.384-0.859,0.671-1.18
		s0.626-0.563,1.017-0.73c0.391-0.166,0.813-0.25,1.268-0.25c0.44,0,0.821,0.057,1.142,0.17c0.32,0.114,0.593,0.273,0.816,0.48
		s0.404,0.453,0.541,0.74c0.137,0.286,0.242,0.604,0.315,0.949l-0.9,0.15c-0.06-0.26-0.139-0.495-0.235-0.705
		s-0.221-0.388-0.371-0.535c-0.15-0.146-0.33-0.258-0.541-0.335c-0.211-0.076-0.466-0.114-0.767-0.114
		c-0.354,0-0.67,0.071-0.947,0.215s-0.512,0.343-0.702,0.6s-0.336,0.566-0.436,0.93c-0.101,0.364-0.15,0.766-0.15,1.205
		c0,0.44,0.05,0.842,0.15,1.205c0.1,0.363,0.245,0.675,0.436,0.936c0.19,0.26,0.425,0.46,0.702,0.6s0.596,0.21,0.957,0.21
		c0.327,0,0.606-0.041,0.837-0.125c0.23-0.083,0.421-0.201,0.571-0.354s0.27-0.337,0.356-0.551c0.086-0.213,0.149-0.446,0.19-0.699
		H177.482z"/>
</g>
<g class="st1">
	<path class="st0" d="M178.603,12.529h0.86v0.8c0.193-0.286,0.42-0.507,0.68-0.66c0.261-0.153,0.537-0.229,0.83-0.229
		c0.181,0,0.333,0.014,0.46,0.04l-0.109,0.81c-0.067-0.013-0.134-0.024-0.2-0.035c-0.067-0.01-0.141-0.015-0.22-0.015
		c-0.16,0-0.324,0.028-0.49,0.085c-0.167,0.057-0.323,0.151-0.471,0.285c-0.146,0.127-0.262,0.273-0.345,0.439
		c-0.083,0.167-0.125,0.36-0.125,0.58v3.07h-0.87V12.529z"/>
</g>
<g class="st1">
	<path class="st0" d="M186.423,16.249c-0.087,0.5-0.309,0.894-0.665,1.181c-0.356,0.286-0.868,0.43-1.535,0.43
		c-0.786,0-1.39-0.238-1.81-0.715s-0.63-1.142-0.63-1.995c0-0.446,0.06-0.844,0.18-1.19s0.288-0.637,0.505-0.87
		s0.476-0.411,0.775-0.534c0.3-0.124,0.626-0.186,0.979-0.186c0.4,0,0.743,0.063,1.03,0.19c0.286,0.126,0.521,0.302,0.705,0.524
		c0.184,0.224,0.32,0.488,0.41,0.795s0.135,0.644,0.135,1.011v0.439h-3.84c0,0.26,0.035,0.502,0.104,0.726
		c0.07,0.223,0.17,0.416,0.301,0.579c0.13,0.164,0.291,0.292,0.484,0.386c0.193,0.093,0.417,0.14,0.67,0.14
		c0.434,0,0.75-0.081,0.95-0.245c0.2-0.163,0.337-0.385,0.41-0.665H186.423z M185.633,14.68c0-0.247-0.026-0.471-0.08-0.671
		c-0.053-0.199-0.137-0.371-0.25-0.515s-0.26-0.255-0.439-0.335c-0.181-0.08-0.397-0.12-0.65-0.12c-0.46,0-0.818,0.141-1.075,0.42
		c-0.257,0.28-0.408,0.687-0.455,1.221H185.633z"/>
	<path class="st0" d="M190.873,16.989c-0.188,0.227-0.424,0.422-0.71,0.585c-0.287,0.163-0.644,0.245-1.07,0.245
		c-0.26,0-0.499-0.032-0.715-0.095c-0.217-0.063-0.403-0.16-0.561-0.29c-0.156-0.13-0.278-0.292-0.364-0.485
		c-0.087-0.193-0.131-0.42-0.131-0.68c0-0.354,0.075-0.641,0.226-0.86c0.149-0.22,0.35-0.394,0.6-0.52
		c0.25-0.127,0.532-0.217,0.845-0.271c0.313-0.053,0.637-0.087,0.971-0.1l0.89-0.03v-0.2c0-0.439-0.094-0.757-0.28-0.95
		s-0.489-0.29-0.909-0.29c-0.414,0-0.717,0.068-0.91,0.205s-0.32,0.325-0.38,0.565l-0.79-0.09c0.093-0.474,0.316-0.818,0.67-1.035
		c0.353-0.217,0.833-0.325,1.439-0.325c0.374,0,0.688,0.045,0.945,0.135s0.465,0.219,0.625,0.386
		c0.16,0.166,0.275,0.373,0.345,0.619c0.07,0.247,0.105,0.523,0.105,0.83v3.36h-0.84V16.989z M190.853,15.109l-0.83,0.03
		c-0.354,0.013-0.646,0.046-0.88,0.099c-0.233,0.054-0.418,0.125-0.555,0.215c-0.137,0.089-0.233,0.2-0.29,0.333
		s-0.085,0.285-0.085,0.457c0,0.259,0.078,0.467,0.234,0.622c0.157,0.156,0.415,0.234,0.775,0.234c0.514,0,0.913-0.126,1.2-0.378
		c0.286-0.253,0.43-0.598,0.43-1.035V15.109z"/>
	<path class="st0" d="M193.333,13.219h-0.8v-0.689h0.8v-1.41h0.87v1.41h1.37v0.689h-1.37v3.03c0,0.254,0.057,0.457,0.17,0.61
		s0.286,0.229,0.52,0.229c0.147,0,0.275-0.01,0.386-0.029c0.109-0.021,0.211-0.047,0.305-0.08l0.15,0.67
		c-0.134,0.047-0.278,0.085-0.436,0.115c-0.156,0.029-0.342,0.045-0.555,0.045c-0.294,0-0.53-0.044-0.71-0.13
		c-0.18-0.087-0.323-0.211-0.43-0.37c-0.107-0.16-0.179-0.351-0.216-0.57c-0.036-0.22-0.055-0.46-0.055-0.72V13.219z"/>
	<path class="st0" d="M196.493,10.56h0.93v1.01h-0.93V10.56z M196.522,12.529h0.87v5.17h-0.87V12.529z"/>
</g>
<g class="st1">
	<path class="st0" d="M198.152,12.529h1.011l1.54,4.2l1.57-4.2h0.959l-2.08,5.17h-0.93L198.152,12.529z"/>
</g>
<g class="st1">
	<path class="st0" d="M208.323,16.249c-0.087,0.5-0.309,0.894-0.665,1.181c-0.357,0.286-0.869,0.43-1.535,0.43
		c-0.787,0-1.391-0.238-1.811-0.715s-0.63-1.142-0.63-1.995c0-0.446,0.061-0.844,0.181-1.19c0.119-0.347,0.288-0.637,0.505-0.87
		c0.216-0.233,0.475-0.411,0.774-0.534c0.3-0.124,0.627-0.186,0.98-0.186c0.399,0,0.743,0.063,1.03,0.19
		c0.286,0.126,0.521,0.302,0.704,0.524c0.184,0.224,0.32,0.488,0.41,0.795s0.136,0.644,0.136,1.011v0.439h-3.841
		c0,0.26,0.035,0.502,0.105,0.726c0.07,0.223,0.17,0.416,0.3,0.579c0.13,0.164,0.292,0.292,0.485,0.386
		c0.193,0.093,0.416,0.14,0.67,0.14c0.433,0,0.75-0.081,0.95-0.245c0.199-0.163,0.336-0.385,0.409-0.665H208.323z M207.533,14.68
		c0-0.247-0.027-0.471-0.08-0.671c-0.054-0.199-0.137-0.371-0.25-0.515s-0.261-0.255-0.44-0.335s-0.396-0.12-0.649-0.12
		c-0.46,0-0.819,0.141-1.075,0.42c-0.257,0.28-0.408,0.687-0.455,1.221H207.533z"/>
	<path class="st0" d="M214.003,10.56h0.97l2.77,7.14h-1l-0.75-1.99h-3.06l-0.75,1.99h-0.96L214.003,10.56z M215.713,14.909
		l-1.261-3.31l-1.239,3.31H215.713z"/>
</g>
<g class="st1">
	<path class="st0" d="M218.522,12.529h0.86v0.8c0.193-0.286,0.42-0.507,0.68-0.66c0.261-0.153,0.537-0.229,0.83-0.229
		c0.181,0,0.333,0.014,0.46,0.04l-0.109,0.81c-0.067-0.013-0.134-0.024-0.2-0.035c-0.067-0.01-0.141-0.015-0.22-0.015
		c-0.16,0-0.324,0.028-0.49,0.085c-0.167,0.057-0.323,0.151-0.471,0.285c-0.146,0.127-0.262,0.273-0.345,0.439
		c-0.083,0.167-0.125,0.36-0.125,0.58v3.07h-0.87V12.529z"/>
</g>
<g class="st1">
	<path class="st0" d="M222.724,13.219h-0.801v-0.689h0.801v-1.41h0.869v1.41h1.37v0.689h-1.37v3.03c0,0.254,0.057,0.457,0.17,0.61
		s0.287,0.229,0.521,0.229c0.146,0,0.275-0.01,0.385-0.029c0.11-0.021,0.212-0.047,0.306-0.08l0.149,0.67
		c-0.134,0.047-0.278,0.085-0.435,0.115c-0.157,0.029-0.342,0.045-0.556,0.045c-0.293,0-0.529-0.044-0.71-0.13
		c-0.18-0.087-0.323-0.211-0.43-0.37c-0.106-0.16-0.179-0.351-0.215-0.57c-0.037-0.22-0.055-0.46-0.055-0.72V13.219z"/>
	<path class="st0" d="M226.453,16.189c0.06,0.359,0.211,0.611,0.455,0.755c0.243,0.144,0.574,0.215,0.995,0.215
		c0.439,0,0.751-0.075,0.935-0.225c0.184-0.15,0.275-0.349,0.275-0.596c0-0.1-0.012-0.194-0.035-0.284
		c-0.023-0.091-0.068-0.171-0.135-0.24c-0.067-0.07-0.16-0.132-0.28-0.186c-0.12-0.053-0.277-0.097-0.47-0.13l-0.66-0.1
		c-0.294-0.047-0.551-0.106-0.771-0.181c-0.22-0.073-0.406-0.168-0.56-0.284c-0.153-0.117-0.269-0.261-0.346-0.431
		c-0.076-0.17-0.114-0.375-0.114-0.614c0-0.24,0.052-0.454,0.154-0.641c0.104-0.187,0.247-0.345,0.431-0.475
		c0.183-0.13,0.399-0.23,0.649-0.3c0.25-0.07,0.521-0.105,0.815-0.105c0.373,0,0.685,0.037,0.935,0.11s0.455,0.173,0.615,0.3
		s0.283,0.276,0.37,0.45c0.087,0.173,0.153,0.356,0.2,0.55l-0.79,0.13c-0.047-0.14-0.101-0.264-0.16-0.37s-0.14-0.195-0.24-0.265
		c-0.1-0.07-0.222-0.123-0.365-0.16c-0.143-0.036-0.321-0.055-0.534-0.055c-0.24,0-0.44,0.021-0.601,0.064
		c-0.16,0.044-0.288,0.102-0.385,0.175c-0.097,0.074-0.165,0.155-0.205,0.245s-0.06,0.186-0.06,0.285
		c0,0.106,0.013,0.202,0.04,0.285c0.026,0.083,0.076,0.156,0.149,0.22s0.174,0.119,0.3,0.165c0.127,0.047,0.29,0.087,0.49,0.12
		l0.75,0.12c0.606,0.1,1.042,0.273,1.305,0.52c0.264,0.247,0.396,0.607,0.396,1.08c0,0.221-0.044,0.422-0.13,0.605
		c-0.087,0.184-0.217,0.344-0.391,0.479c-0.173,0.137-0.39,0.244-0.649,0.32s-0.563,0.115-0.91,0.115
		c-0.313,0-0.604-0.03-0.875-0.09c-0.27-0.061-0.509-0.155-0.715-0.285c-0.207-0.13-0.374-0.302-0.5-0.516
		c-0.127-0.213-0.2-0.473-0.22-0.779H226.453z"/>
</g>
<g class="st1">
	<path class="st0" d="M124.774,25.379h-2.36V24.56h5.65v0.819h-2.36v6.32h-0.93V25.379z"/>
</g>
<g class="st1">
	<path class="st0" d="M129.844,31.859c-0.393,0-0.743-0.063-1.05-0.19c-0.307-0.126-0.567-0.307-0.78-0.54s-0.377-0.52-0.49-0.859
		s-0.17-0.721-0.17-1.141s0.061-0.8,0.181-1.14s0.29-0.63,0.51-0.87s0.485-0.425,0.795-0.555s0.655-0.195,1.035-0.195
		c0.387,0,0.733,0.063,1.04,0.19c0.307,0.126,0.568,0.308,0.785,0.545c0.217,0.236,0.381,0.521,0.494,0.854
		c0.113,0.334,0.17,0.71,0.17,1.13c0,0.427-0.058,0.811-0.174,1.15c-0.117,0.34-0.283,0.63-0.5,0.87s-0.482,0.425-0.795,0.555
		C130.58,31.794,130.23,31.859,129.844,31.859z M129.854,31.14c0.279,0,0.518-0.051,0.716-0.15s0.362-0.24,0.492-0.42
		c0.129-0.18,0.224-0.396,0.282-0.646c0.061-0.25,0.09-0.524,0.09-0.824c0-0.294-0.029-0.563-0.09-0.811
		c-0.059-0.246-0.153-0.458-0.282-0.635c-0.13-0.177-0.294-0.315-0.492-0.415s-0.437-0.15-0.716-0.15
		c-0.277,0-0.515,0.051-0.71,0.15s-0.358,0.238-0.487,0.415s-0.223,0.389-0.283,0.635c-0.06,0.247-0.089,0.521-0.089,0.82
		s0.029,0.573,0.089,0.82c0.061,0.246,0.152,0.46,0.279,0.64c0.125,0.18,0.287,0.32,0.486,0.42S129.576,31.14,129.854,31.14z"/>
	<path class="st0" d="M133.523,24.56h0.93v1.01h-0.93V24.56z M133.554,26.529h0.87v5.17h-0.87V26.529z"/>
</g>
<g class="st1">
	<path class="st0" d="M138.134,24.56h2.34c0.533,0,0.971,0.06,1.311,0.18s0.608,0.275,0.805,0.465
		c0.196,0.19,0.332,0.405,0.405,0.646c0.073,0.239,0.109,0.483,0.109,0.729c0,0.453-0.095,0.84-0.284,1.16
		c-0.19,0.32-0.502,0.57-0.936,0.75l1.5,3.21h-1.03l-1.35-2.99c-0.087,0.014-0.18,0.021-0.28,0.025
		c-0.1,0.003-0.189,0.005-0.27,0.005h-1.41v2.96h-0.91V24.56z M140.568,27.939c0.321,0,0.586-0.031,0.793-0.095
		s0.371-0.153,0.491-0.27c0.121-0.116,0.204-0.257,0.251-0.423s0.07-0.352,0.07-0.558c0-0.199-0.026-0.376-0.08-0.528
		s-0.146-0.284-0.275-0.394c-0.131-0.109-0.307-0.192-0.527-0.249s-0.502-0.085-0.843-0.085h-1.404v2.601H140.568z"/>
</g>
<g class="st1">
	<path class="st0" d="M147.464,30.989c-0.187,0.227-0.423,0.422-0.71,0.585s-0.644,0.245-1.07,0.245
		c-0.26,0-0.498-0.032-0.715-0.095c-0.217-0.063-0.403-0.16-0.56-0.29c-0.157-0.13-0.278-0.292-0.365-0.485s-0.13-0.42-0.13-0.68
		c0-0.354,0.075-0.641,0.225-0.86c0.15-0.22,0.351-0.394,0.601-0.52c0.25-0.127,0.531-0.217,0.845-0.271
		c0.313-0.053,0.637-0.087,0.97-0.1l0.891-0.03v-0.2c0-0.439-0.094-0.757-0.28-0.95s-0.49-0.29-0.91-0.29
		c-0.413,0-0.717,0.068-0.91,0.205s-0.319,0.325-0.38,0.565l-0.79-0.09c0.094-0.474,0.316-0.818,0.67-1.035s0.834-0.325,1.44-0.325
		c0.373,0,0.688,0.045,0.944,0.135c0.257,0.09,0.466,0.219,0.625,0.386c0.16,0.166,0.275,0.373,0.346,0.619
		c0.069,0.247,0.104,0.523,0.104,0.83v3.36h-0.84V30.989z M147.444,29.109l-0.83,0.03c-0.354,0.013-0.647,0.046-0.88,0.099
		c-0.233,0.054-0.419,0.125-0.556,0.215c-0.137,0.089-0.233,0.2-0.29,0.333s-0.085,0.285-0.085,0.457
		c0,0.259,0.078,0.467,0.235,0.622c0.156,0.156,0.415,0.234,0.775,0.234c0.513,0,0.913-0.126,1.199-0.378
		c0.287-0.253,0.431-0.598,0.431-1.035V29.109z"/>
	<path class="st0" d="M149.594,26.529h0.87v3.26c0,0.48,0.078,0.82,0.235,1.021c0.156,0.199,0.411,0.3,0.765,0.3
		c0.387,0,0.736-0.141,1.05-0.42c0.167-0.146,0.294-0.302,0.38-0.465c0.087-0.164,0.13-0.375,0.13-0.636v-3.06h0.87v5.17h-0.859
		v-0.8c-0.254,0.333-0.527,0.576-0.82,0.729s-0.61,0.23-0.95,0.23c-0.587,0-1.012-0.158-1.274-0.476
		c-0.264-0.316-0.396-0.791-0.396-1.425V26.529z"/>
	<path class="st0" d="M154.644,26.529h0.95l1.04,4.12l1.189-4.09h0.881l1.159,4.09l1.03-4.12h0.92l-1.51,5.17h-0.92l-1.16-4.12
		l-1.17,4.12h-0.91L154.644,26.529z"/>
	<path class="st0" d="M162.563,24.56h0.87v2.739c0.254-0.326,0.532-0.562,0.835-0.71c0.304-0.146,0.625-0.22,0.965-0.22
		c0.587,0,1.021,0.16,1.306,0.48c0.283,0.319,0.425,0.79,0.425,1.409v3.44h-0.88v-3.27c0-0.48-0.085-0.818-0.255-1.016
		c-0.17-0.196-0.436-0.295-0.795-0.295c-0.193,0-0.386,0.033-0.575,0.1c-0.19,0.067-0.362,0.174-0.516,0.32
		c-0.166,0.146-0.293,0.302-0.38,0.465c-0.086,0.164-0.13,0.375-0.13,0.636v3.06h-0.87V24.56z"/>
	<path class="st0" d="M171.483,30.989c-0.187,0.227-0.423,0.422-0.71,0.585s-0.644,0.245-1.07,0.245
		c-0.26,0-0.498-0.032-0.715-0.095c-0.217-0.063-0.403-0.16-0.56-0.29c-0.157-0.13-0.278-0.292-0.365-0.485s-0.13-0.42-0.13-0.68
		c0-0.354,0.075-0.641,0.225-0.86c0.15-0.22,0.351-0.394,0.601-0.52c0.25-0.127,0.531-0.217,0.845-0.271
		c0.313-0.053,0.637-0.087,0.97-0.1l0.891-0.03v-0.2c0-0.439-0.094-0.757-0.28-0.95s-0.49-0.29-0.91-0.29
		c-0.413,0-0.717,0.068-0.91,0.205s-0.319,0.325-0.38,0.565l-0.79-0.09c0.094-0.474,0.316-0.818,0.67-1.035s0.834-0.325,1.44-0.325
		c0.373,0,0.688,0.045,0.944,0.135c0.257,0.09,0.466,0.219,0.625,0.386c0.16,0.166,0.275,0.373,0.346,0.619
		c0.069,0.247,0.104,0.523,0.104,0.83v3.36h-0.84V30.989z M171.464,29.109l-0.83,0.03c-0.354,0.013-0.647,0.046-0.88,0.099
		c-0.233,0.054-0.419,0.125-0.556,0.215c-0.137,0.089-0.233,0.2-0.29,0.333s-0.085,0.285-0.085,0.457
		c0,0.259,0.078,0.467,0.235,0.622c0.156,0.156,0.415,0.234,0.775,0.234c0.513,0,0.913-0.126,1.199-0.378
		c0.287-0.253,0.431-0.598,0.431-1.035V29.109z M168.913,24.77h2.61v0.72h-2.61V24.77z"/>
</g>
<g class="st1">
	<path class="st0" d="M173.643,26.529h0.86v0.8c0.193-0.286,0.42-0.507,0.68-0.66c0.261-0.153,0.537-0.229,0.83-0.229
		c0.181,0,0.333,0.014,0.46,0.04l-0.109,0.81c-0.067-0.013-0.134-0.024-0.2-0.035c-0.067-0.01-0.141-0.015-0.22-0.015
		c-0.16,0-0.324,0.028-0.49,0.085c-0.167,0.057-0.323,0.151-0.471,0.285c-0.146,0.127-0.262,0.273-0.345,0.439
		c-0.083,0.167-0.125,0.36-0.125,0.58v3.07h-0.87V26.529z"/>
</g>
<g class="st1">
	<path class="st0" d="M180.423,30.989c-0.187,0.227-0.423,0.422-0.71,0.585s-0.644,0.245-1.07,0.245
		c-0.26,0-0.498-0.032-0.715-0.095c-0.217-0.063-0.403-0.16-0.56-0.29c-0.157-0.13-0.278-0.292-0.365-0.485s-0.13-0.42-0.13-0.68
		c0-0.354,0.075-0.641,0.225-0.86c0.15-0.22,0.351-0.394,0.601-0.52c0.25-0.127,0.531-0.217,0.845-0.271
		c0.313-0.053,0.637-0.087,0.97-0.1l0.891-0.03v-0.2c0-0.439-0.094-0.757-0.28-0.95s-0.49-0.29-0.91-0.29
		c-0.413,0-0.717,0.068-0.91,0.205s-0.319,0.325-0.38,0.565l-0.79-0.09c0.094-0.474,0.316-0.818,0.67-1.035s0.834-0.325,1.44-0.325
		c0.373,0,0.688,0.045,0.944,0.135c0.257,0.09,0.466,0.219,0.625,0.386c0.16,0.166,0.275,0.373,0.346,0.619
		c0.069,0.247,0.104,0.523,0.104,0.83v3.36h-0.84V30.989z M180.403,29.109l-0.83,0.03c-0.354,0.013-0.647,0.046-0.88,0.099
		c-0.233,0.054-0.419,0.125-0.556,0.215c-0.137,0.089-0.233,0.2-0.29,0.333s-0.085,0.285-0.085,0.457
		c0,0.259,0.078,0.467,0.235,0.622c0.156,0.156,0.415,0.234,0.775,0.234c0.513,0,0.913-0.126,1.199-0.378
		c0.287-0.253,0.431-0.598,0.431-1.035V29.109z"/>
	<path class="st0" d="M182.583,26.529h0.859v0.79c0.254-0.34,0.534-0.583,0.841-0.73c0.307-0.146,0.63-0.22,0.97-0.22
		c0.587,0,1.021,0.16,1.305,0.48c0.283,0.319,0.425,0.79,0.425,1.409v3.44h-0.869v-3.27c0-0.48-0.087-0.818-0.261-1.016
		c-0.173-0.196-0.439-0.295-0.8-0.295c-0.193,0-0.385,0.033-0.575,0.1c-0.189,0.067-0.361,0.174-0.515,0.32
		c-0.167,0.146-0.294,0.302-0.38,0.465c-0.087,0.164-0.13,0.375-0.13,0.636v3.06h-0.87V26.529z"/>
	<path class="st0" d="M189.163,32.18c0.073,0.312,0.215,0.536,0.425,0.67c0.21,0.133,0.538,0.199,0.985,0.199
		c0.546,0,0.925-0.151,1.135-0.455c0.21-0.303,0.315-0.744,0.315-1.324v-0.551c-0.2,0.28-0.442,0.497-0.726,0.65
		s-0.615,0.23-0.995,0.23c-0.373,0-0.698-0.068-0.975-0.205s-0.505-0.323-0.686-0.561c-0.18-0.236-0.314-0.512-0.404-0.825
		c-0.09-0.312-0.135-0.649-0.135-1.01c0-0.394,0.053-0.751,0.159-1.075c0.106-0.323,0.261-0.6,0.46-0.83
		c0.2-0.229,0.442-0.408,0.726-0.534c0.283-0.127,0.602-0.19,0.955-0.19c0.286,0,0.571,0.059,0.854,0.175
		c0.283,0.117,0.542,0.332,0.775,0.646v-0.66h0.859v4.33c0,0.446-0.031,0.848-0.095,1.205c-0.063,0.356-0.18,0.66-0.35,0.91
		s-0.405,0.441-0.705,0.574c-0.3,0.134-0.687,0.2-1.16,0.2c-0.68,0-1.214-0.121-1.6-0.365c-0.387-0.243-0.614-0.645-0.681-1.204
		H189.163z M192.043,28.924c0-0.341-0.04-0.626-0.119-0.857c-0.08-0.23-0.189-0.419-0.329-0.566
		c-0.14-0.146-0.301-0.252-0.483-0.315s-0.374-0.096-0.573-0.096c-0.213,0-0.41,0.035-0.593,0.105
		c-0.184,0.07-0.343,0.183-0.479,0.336c-0.137,0.154-0.243,0.352-0.319,0.592s-0.114,0.531-0.114,0.872
		c0,0.348,0.041,0.642,0.124,0.883c0.083,0.24,0.191,0.435,0.324,0.581c0.133,0.147,0.287,0.254,0.464,0.321
		c0.176,0.066,0.354,0.1,0.533,0.1c0.226,0,0.434-0.036,0.623-0.11c0.189-0.073,0.354-0.184,0.493-0.33
		c0.14-0.147,0.249-0.333,0.329-0.557c0.079-0.225,0.119-0.486,0.119-0.787V28.924z"/>
	<path class="st0" d="M194.223,24.56h0.93v1.01h-0.93V24.56z M194.253,26.529h0.87v5.17h-0.87V26.529z"/>
</g>
<rect x="110.369" y="0.384" class="st0" width="1" height="42.5"/>
<path class="st0" d="M34.795,4.939h-0.03l-0.313,5.085c-0.058,0.942-0.044,1.4,1.171,1.414v0.557h-3.171v-0.557
	c1.113-0.014,1.143-0.328,1.214-1.514l0.314-5.171c0.043-0.728,0-1.042-0.958-1.085v-0.56h3.014l2.786,6l2.671-6h3.07v0.556
	c-1.029,0.057-1.1,0.057-1.029,1.085l0.343,5.271c0.073,1.2,0.115,1.328,1.257,1.414v0.557h-4.5v-0.557h0.243c0.6,0,1.1,0,1.1-0.928
	c0-0.229-0.015-0.457-0.029-0.671L41.62,4.764h-0.03l-3.2,7.227h-0.343L34.795,4.939z"/>
<path class="st0" d="M51.165,4.568l-1.2,3.342h2.514L51.165,4.568z M49.68,8.695l-0.6,1.671c-0.258,0.729-0.242,1.072,1.128,1.072
	h0.186v0.557h-3.785v-0.557h0.215c0.684,0,1.042-0.314,1.4-1.315l2.442-6.812l-0.157-0.413h2.114l2.858,7.254
	c0.371,0.943,0.685,1.228,1.428,1.286v0.557h-4.644v-0.557h0.5c0.87,0,1-0.385,0.713-1.086l-0.671-1.657L49.68,8.695z"/>
<path class="st0" d="M58.667,9.367h0.557c0.47,1.415,1.313,2.143,2.441,2.143c0.83,0.083,1.571-0.523,1.654-1.353
	c0.002-0.016,0.003-0.031,0.004-0.047c0-2.129-4.586-2.058-4.586-4.885c0-1.372,1.2-2.328,2.9-2.328
	c0.735,0.043,1.464,0.167,2.172,0.37c0.123-0.003,0.238-0.06,0.314-0.156h0.3l0.27,2.313h-0.571c-0.24-1.1-1.203-1.892-2.329-1.914
	c-0.8,0-1.4,0.429-1.4,0.986c0,1.314,2.372,1.557,3.971,3.157c0.526,0.485,0.823,1.17,0.816,1.885
	c-0.101,1.569-1.454,2.758-3.023,2.658c-0.007,0-0.015-0.001-0.022-0.002c-0.828-0.066-1.646-0.219-2.442-0.457
	c-0.139,0.004-0.26,0.096-0.3,0.229h-0.372L58.667,9.367z"/>
<path class="st0" d="M67.781,9.367h0.554c0.473,1.415,1.315,2.143,2.445,2.143c0.83,0.082,1.569-0.523,1.652-1.353
	c0.002-0.016,0.003-0.033,0.004-0.049c0-2.129-4.586-2.058-4.586-4.885c0-1.372,1.2-2.328,2.9-2.328
	c0.735,0.042,1.463,0.166,2.171,0.37c0.123-0.002,0.239-0.06,0.315-0.157h0.3l0.271,2.313h-0.571
	c-0.239-1.1-1.202-1.891-2.327-1.914c-0.8,0-1.4,0.429-1.4,0.986c0,1.314,2.37,1.557,3.97,3.157c0.525,0.485,0.82,1.17,0.813,1.885
	c-0.1,1.568-1.451,2.757-3.019,2.658c-0.008,0-0.015-0.001-0.023-0.002c-0.828-0.066-1.646-0.219-2.442-0.457
	c-0.139,0.004-0.26,0.096-0.3,0.229h-0.372L67.781,9.367z"/>
<path class="st0" d="M82.55,3.897h-3.125v3.211h2.311c0.785,0,1.072-0.271,1.072-1.029h0.571v2.842h-0.571
	c0-0.771-0.186-1.028-1.286-1.028h-2.1v2.571c0,0.614,0.113,0.743,0.528,0.743h2.386c0.929,0,1.373-0.257,1.643-1.457h0.543
	l-0.171,2.242h-8.6v-0.557h0.587c0.827,0,1.114-0.328,1.114-1.028v-5.7c0-0.772-0.257-1.043-1.245-1.043h-0.143V3.108h7.872
	l0.142,2.07h-0.542c-0.143-0.971-0.329-1.285-0.988-1.285"/>
<path class="st0" d="M92.349,10.381c0,0.686,0.216,1.057,1.243,1.057h0.214v0.557h-4.87v-0.557h0.356
	c0.859,0,1.086-0.385,1.086-1.028V8.424l-3.071-4.085c-0.247-0.477-0.768-0.747-1.3-0.671h-0.1v-0.56h4.656v0.556h-0.171
	c-0.828,0-0.941,0.344-0.642,0.729l2.286,3.015l1.658-2.6c0.372-0.584,0.485-1.142-0.514-1.142h-0.171V3.108h3.371v0.556
	c-0.828,0.058-1.072,0.215-1.585,1L92.35,8.42L92.349,10.381z"/>
<path class="st0" d="M36.887,14.608h2.122v0.32h-0.057c-0.656,0-0.754,0.287-0.754,0.68v2.041c0.089,1.117-0.745,2.095-1.862,2.184
	c-0.146,0.012-0.293,0.007-0.438-0.013c-1.474,0-2.409-0.639-2.409-1.893v-2.442c0-0.41-0.114-0.557-0.574-0.557h-0.138v-0.32h2.559
	v0.32h-0.14c-0.279-0.042-0.538,0.15-0.58,0.429c-0.006,0.043-0.007,0.086-0.003,0.128v2.442c-0.027,0.721,0.537,1.328,1.258,1.354
	c0.076,0.003,0.151-0.001,0.226-0.011c0.777,0.105,1.492-0.44,1.597-1.218c0.013-0.096,0.016-0.193,0.009-0.29v-1.991
	c0-0.58-0.164-0.843-0.672-0.843h-0.147L36.887,14.608z"/>
<path class="st0" d="M41.648,18.722c0,0.5,0.156,0.664,0.811,0.664v0.319h-1.982v-0.319h0.048c0.5,0,0.623-0.181,0.623-0.517v-3.761
	c-0.195-0.125-0.423-0.188-0.655-0.18v-0.32h1.687l3.344,3.491v-2.474c0-0.59-0.123-0.7-0.78-0.7h-0.081v-0.317h2.114v0.321h-0.082
	c-0.508,0-0.672,0.106-0.672,0.417v4.383h-0.45l-3.925-4.1L41.648,18.722z"/>
<path class="st0" d="M48.361,14.608h2.606v0.32h-0.141c-0.443,0-0.622,0.189-0.622,0.614v3.245c0,0.4,0.139,0.6,0.638,0.6h0.125
	v0.318h-2.606v-0.318h0.114c0.434,0,0.6-0.205,0.6-0.566v-3.278c0-0.425-0.148-0.614-0.606-0.614h-0.106L48.361,14.608z"/>
<path class="st0" d="M53.343,15.617c-0.271-0.591-0.385-0.689-0.852-0.689h-0.055v-0.32h2.844v0.32h-0.14
	c-0.688,0-0.794,0.23-0.564,0.713l1.285,2.736l1.255-2.982c0.113-0.278-0.075-0.467-0.543-0.467h-0.164v-0.32h2.082v0.32h-0.058
	c-0.482,0-0.663,0.221-0.933,0.868l-1.7,4.023h-0.517L53.343,15.617z"/>
<path class="st0" d="M63.489,15.059h-1.8v1.849h1.327c0.451,0,0.615-0.155,0.615-0.59h0.329v1.631h-0.324
	c0-0.443-0.109-0.589-0.738-0.589h-1.2v1.474c0,0.352,0.066,0.426,0.3,0.426h1.37c0.53,0,0.786-0.148,0.94-0.836h0.312l-0.1,1.286
	h-4.933v-0.319h0.335c0.476,0,0.64-0.188,0.64-0.59v-3.269c0-0.443-0.148-0.6-0.712-0.6h-0.082v-0.32h4.513l0.083,1.188h-0.312
	c-0.082-0.557-0.188-0.738-0.564-0.738"/>
<path class="st0" d="M68.02,17.197h0.32c0.993,0,1.564-0.3,1.564-1.179s-0.664-1.18-1.457-1.18H68.02V17.197z M68.02,18.787
	c0,0.417,0.181,0.6,0.649,0.6h0.244v0.319h-2.866v-0.319h0.129c0.5,0,0.715-0.122,0.715-0.6v-3.236c0-0.393-0.109-0.623-0.657-0.623
	h-0.171v-0.32c0.408-0.024,0.719-0.04,1.057-0.065c0.459-0.033,1.048-0.058,1.343-0.058c0.801-0.119,1.617,0.085,2.269,0.566
	c0.256,0.243,0.398,0.581,0.393,0.934c-0.039,0.671-0.545,1.222-1.211,1.318c0.539,0.452,0.826,1.1,1.409,1.681
	c0.275,0.307,0.668,0.483,1.08,0.483v0.319c-0.179,0.008-0.26,0.008-0.506,0.008c-1.016,0-1.436-0.147-1.819-0.531
	c-0.41-0.41-0.886-1.271-1.409-1.722H68.02L68.02,18.787z"/>
<path class="st0" d="M73.66,18.197h0.319c0.27,0.811,0.755,1.229,1.4,1.229c0.476,0.048,0.901-0.3,0.949-0.776
	c0.001-0.008,0.001-0.016,0.002-0.024c0-1.221-2.628-1.18-2.628-2.8c0-0.787,0.687-1.336,1.661-1.336
	c0.422,0.024,0.839,0.096,1.245,0.213l0.181-0.09h0.174l0.154,1.328h-0.328c-0.138-0.63-0.688-1.084-1.333-1.1
	c-0.462,0-0.8,0.245-0.8,0.565c0,0.753,1.36,0.894,2.278,1.811c0.3,0.279,0.468,0.671,0.464,1.081
	c-0.056,0.898-0.83,1.581-1.729,1.525c-0.005,0-0.01-0.001-0.015-0.001c-0.475-0.038-0.944-0.125-1.4-0.262
	c-0.079,0.003-0.148,0.055-0.171,0.131h-0.212L73.66,18.197z"/>
<path class="st0" d="M79.053,14.608h2.6v0.32h-0.138c-0.443,0-0.624,0.189-0.624,0.614v3.245c0,0.4,0.141,0.6,0.639,0.6h0.123v0.318
	h-2.6v-0.318h0.112c0.435,0,0.6-0.205,0.6-0.566v-3.278c0-0.425-0.146-0.614-0.6-0.614H79.06L79.053,14.608z"/>
<path class="st0" d="M86.468,18.771c0,0.427,0.13,0.615,0.712,0.615h0.2v0.319h-2.951v-0.319h0.28c0.451,0,0.629-0.181,0.629-0.615
	v-3.736H84.37c-0.629,0-0.728,0.1-0.882,0.967h-0.336L83.3,14.47h0.261l0.156,0.114c0.077,0.02,0.157,0.028,0.237,0.024h3.9
	c0.146,0.027,0.296-0.026,0.394-0.138h0.262l0.148,1.532h-0.336c-0.156-0.861-0.255-0.967-0.884-0.967H86.47L86.468,18.771z"/>
<path class="st0" d="M93.555,18.779c0,0.393,0.123,0.607,0.714,0.607h0.122v0.318h-2.793v-0.318h0.206
	c0.49,0,0.622-0.222,0.622-0.59v-1.14l-1.761-2.343c-0.143-0.274-0.442-0.428-0.748-0.385h-0.055v-0.32h2.674v0.32h-0.1
	c-0.475,0-0.539,0.2-0.368,0.418l1.312,1.728l0.95-1.49c0.212-0.336,0.277-0.656-0.294-0.656h-0.1v-0.32h1.934v0.32
	c-0.393-0.018-0.757,0.211-0.909,0.574l-1.4,2.154L93.555,18.779z"/>
<path class="st0" d="M35.112,26.053c0,0.195,0.058,0.281,0.311,0.281h0.086v0.146h-1.287v-0.146h0.122
	c0.2,0,0.275-0.082,0.275-0.281v-1.71h-0.421c-0.276,0-0.319,0.045-0.386,0.443h-0.147l0.064-0.7h0.115l0.068,0.052l0.1,0.011h1.7
	c0.064,0.011,0.13-0.013,0.171-0.063h0.115l0.064,0.7h-0.146c-0.069-0.394-0.111-0.443-0.386-0.443h-0.422L35.112,26.053z"/>
<path class="st0" d="M38.166,24.354h-0.783v0.844h0.579c0.2,0,0.268-0.071,0.268-0.27h0.143v0.747H38.23
	c0-0.2-0.046-0.271-0.321-0.271h-0.526v0.675c0,0.161,0.029,0.195,0.133,0.195h0.6c0.231,0,0.343-0.068,0.41-0.382h0.137
	l-0.044,0.588h-2.151v-0.146h0.148c0.205,0,0.278-0.086,0.278-0.27v-1.5c0-0.2-0.065-0.274-0.312-0.274h-0.035v-0.146h1.968
	l0.037,0.543h-0.137c-0.035-0.254-0.082-0.337-0.246-0.337"/>
<path class="st0" d="M41.481,26.06c0,0.211,0.093,0.274,0.282,0.274h0.05v0.146h-1.164v-0.146h0.064
	c0.182,0,0.275-0.063,0.275-0.281V24.58c0-0.2-0.068-0.286-0.279-0.286h-0.06v-0.146h1.164v0.146h-0.061
	c-0.231,0-0.271,0.094-0.271,0.3v0.674c0.184-0.04,0.35-0.14,0.472-0.284c0.16-0.158,0.279-0.352,0.346-0.566
	c0-0.079-0.064-0.124-0.215-0.124h-0.039v-0.146H43v0.146c-0.215,0.015-0.293,0.034-0.39,0.136c-0.175,0.263-0.372,0.509-0.59,0.738
	c0.147,0.112,0.275,0.247,0.379,0.4l0.311,0.416c0.183,0.248,0.321,0.349,0.543,0.349v0.146h-1.217v-0.146
	c0.151,0,0.25-0.023,0.25-0.1c-0.151-0.258-0.337-0.494-0.553-0.7c-0.115-0.121-0.165-0.136-0.25-0.136L41.481,26.06z"/>
<path class="st0" d="M45.336,24.148h0.926v0.146h-0.026c-0.286,0-0.329,0.131-0.329,0.311v0.934c0.055,0.494-0.3,0.939-0.794,0.995
	c-0.068,0.008-0.137,0.007-0.206-0.001c-0.643,0-1.05-0.293-1.05-0.866v-1.118c0-0.188-0.05-0.255-0.252-0.255h-0.059v-0.146h1.119
	v0.146h-0.062c-0.124-0.015-0.238,0.073-0.253,0.197c-0.002,0.019-0.002,0.039,0,0.058v1.118c-0.021,0.32,0.22,0.596,0.54,0.618
	c0.035,0.002,0.071,0.001,0.106-0.003c0.349,0.037,0.662-0.217,0.699-0.566c0.004-0.041,0.005-0.083,0.001-0.124V24.68
	c0-0.266-0.072-0.386-0.293-0.386h-0.067V24.148z"/>
<path class="st0" d="M47.178,26.03c0,0.229,0.068,0.3,0.354,0.3v0.146h-0.864V26.33h0.02c0.219,0,0.273-0.082,0.273-0.236v-1.721
	c-0.084-0.057-0.184-0.086-0.286-0.083v-0.146h0.736l1.457,1.6v-1.132c0-0.271-0.054-0.319-0.339-0.319h-0.036v-0.146h0.922v0.146
	H49.38c-0.223,0-0.293,0.048-0.293,0.192v2h-0.2l-1.712-1.878L47.178,26.03z"/>
<path class="st0" d="M51.483,24.354H50.7v0.844h0.579c0.2,0,0.268-0.071,0.268-0.27h0.143v0.747h-0.143
	c0-0.2-0.047-0.271-0.322-0.271H50.7v0.675c0,0.161,0.029,0.195,0.132,0.195h0.6c0.233,0,0.344-0.068,0.412-0.382h0.135
	l-0.042,0.588h-2.151v-0.146h0.146c0.207,0,0.279-0.086,0.279-0.27v-1.5c0-0.2-0.064-0.274-0.312-0.274h-0.034v-0.146h1.968
	l0.036,0.543h-0.136c-0.037-0.254-0.082-0.337-0.246-0.337"/>
<path class="st0" d="M52.997,26.03c0,0.229,0.067,0.3,0.354,0.3v0.146h-0.864V26.33h0.02c0.219,0,0.272-0.082,0.272-0.236v-1.721
	c-0.084-0.058-0.185-0.087-0.287-0.083v-0.146h0.737l1.457,1.6v-1.132c0-0.271-0.053-0.319-0.338-0.319h-0.036v-0.146h0.922v0.146
	h-0.036c-0.222,0-0.292,0.048-0.292,0.192v2h-0.2l-1.711-1.878L52.997,26.03z"/>
<path class="st0" d="M58.316,25.501c-0.19,0.005-0.253,0.065-0.253,0.237v0.56c-0.292,0.141-0.61,0.221-0.934,0.235
	c-0.651,0.084-1.246-0.375-1.33-1.026c-0.01-0.074-0.012-0.148-0.008-0.223c0.006-0.666,0.55-1.201,1.216-1.196
	c0.028,0,0.056,0.001,0.084,0.004c0.261,0.022,0.52,0.066,0.774,0.131l0.107-0.048h0.091v0.685h-0.145
	c-0.064-0.356-0.376-0.613-0.738-0.607c-0.501,0.023-0.889,0.449-0.866,0.95c0.001,0.026,0.003,0.051,0.007,0.077
	c-0.065,0.526,0.31,1.005,0.836,1.07c0.01,0.001,0.02,0.002,0.03,0.003c0.134,0,0.265-0.034,0.381-0.1v-0.517
	c0-0.187-0.074-0.229-0.439-0.237v-0.141h1.187L58.316,25.501z"/>
<path class="st0" d="M59.872,24.53l-0.3,0.878h0.627L59.872,24.53z M59.502,25.614l-0.151,0.439
	c-0.065,0.192-0.06,0.281,0.284,0.281h0.044v0.146h-0.943v-0.146h0.055c0.172,0,0.262-0.082,0.352-0.345l0.609-1.789l-0.038-0.108
	h0.528l0.714,1.905c0.094,0.248,0.171,0.322,0.357,0.337v0.146h-1.16v-0.146h0.125c0.217,0,0.25-0.1,0.178-0.285l-0.168-0.435
	H59.502z"/>
<path class="st0" d="M64.044,26.06c0,0.211,0.094,0.274,0.282,0.274h0.051v0.146h-1.165v-0.146h0.064
	c0.181,0,0.275-0.063,0.275-0.281V24.58c0-0.2-0.067-0.286-0.28-0.286h-0.059v-0.146h1.165v0.146h-0.061
	c-0.231,0-0.272,0.094-0.272,0.3v0.674c0.184-0.04,0.35-0.14,0.472-0.284c0.16-0.157,0.278-0.352,0.345-0.566
	c0-0.079-0.063-0.124-0.212-0.124h-0.041v-0.146h0.956v0.146c-0.215,0.015-0.293,0.034-0.391,0.136
	c-0.174,0.263-0.371,0.51-0.589,0.738c0.147,0.112,0.275,0.247,0.379,0.4l0.311,0.416c0.181,0.248,0.321,0.349,0.543,0.349v0.146
	h-1.219v-0.146c0.15,0,0.251-0.023,0.251-0.1c-0.152-0.258-0.338-0.493-0.554-0.7c-0.114-0.121-0.165-0.136-0.251-0.136
	L64.044,26.06z"/>
<path class="st0" d="M66.17,24.148h1.137v0.146h-0.061c-0.193,0-0.269,0.086-0.269,0.281v1.485c0,0.184,0.059,0.274,0.277,0.274
	h0.053v0.146H66.17v-0.146h0.051c0.19,0,0.261-0.094,0.261-0.259v-1.5c0-0.195-0.066-0.281-0.266-0.281H66.17L66.17,24.148z"/>
<path class="st0" d="M70.09,25.344c0.084,0.02,0.17,0.028,0.256,0.026c0.333,0,0.519-0.2,0.519-0.569
	c0.033-0.269-0.159-0.513-0.427-0.546c-0.031-0.004-0.063-0.005-0.094-0.002c-0.085-0.001-0.171,0.008-0.254,0.027V25.344z
	 M70.09,26.053c0,0.218,0.078,0.281,0.309,0.281h0.108v0.146h-1.215v-0.146h0.053c0.2,0,0.25-0.045,0.25-0.214v-1.612
	c0-0.173-0.053-0.218-0.25-0.218h-0.078v-0.146c0.141-0.008,0.333-0.029,0.579-0.041s0.468-0.018,0.568-0.018
	c0.688,0,0.984,0.348,0.984,0.734c0,0.435-0.35,0.713-0.9,0.713c-0.136-0.001-0.271-0.013-0.405-0.038L70.09,26.053z"/>
<path class="st0" d="M73.612,24.148h0.924v0.146h-0.024c-0.288,0-0.327,0.131-0.327,0.311v0.934c0.056,0.494-0.299,0.94-0.793,0.995
	c-0.071,0.008-0.144,0.008-0.215-0.001c-0.641,0-1.049-0.293-1.049-0.866v-1.118c0-0.188-0.05-0.255-0.25-0.255h-0.06v-0.146h1.118
	v0.146h-0.06c-0.124-0.017-0.239,0.07-0.256,0.194c-0.003,0.02-0.003,0.041,0,0.061v1.118c-0.021,0.32,0.22,0.596,0.54,0.618
	c0.035,0.002,0.071,0.001,0.106-0.003c0.348,0.038,0.661-0.213,0.699-0.561c0.005-0.043,0.005-0.086,0.001-0.129V24.68
	c0-0.266-0.071-0.386-0.294-0.386h-0.063L73.612,24.148z"/>
<path class="st0" d="M75.755,25.333h0.139c0.432,0,0.683-0.139,0.683-0.54s-0.289-0.54-0.636-0.54h-0.186V25.333z M75.755,26.06
	c0,0.192,0.08,0.274,0.282,0.274h0.106v0.146h-1.249v-0.146h0.058c0.217,0,0.31-0.057,0.31-0.274v-1.48
	c0-0.181-0.048-0.286-0.287-0.286H74.9v-0.146c0.179-0.012,0.314-0.018,0.462-0.03c0.2-0.015,0.458-0.026,0.586-0.026
	c0.526,0,0.809,0.071,0.989,0.258c0.112,0.114,0.174,0.269,0.171,0.429c-0.013,0.299-0.233,0.549-0.528,0.6
	c0.236,0.208,0.362,0.5,0.616,0.769c0.116,0.139,0.288,0.22,0.469,0.222v0.146c-0.078,0-0.113,0-0.219,0
	c-0.445,0-0.627-0.068-0.795-0.244s-0.385-0.58-0.614-0.787h-0.282L75.755,26.06z"/>
<path class="st0" d="M79.609,24.354h-0.784v0.844h0.579c0.2,0,0.267-0.071,0.267-0.27h0.144v0.747h-0.144
	c0-0.2-0.045-0.271-0.32-0.271h-0.526v0.675c0,0.161,0.029,0.195,0.133,0.195h0.6c0.231,0,0.342-0.068,0.41-0.382h0.135L80.06,26.48
	h-2.15v-0.146h0.145c0.207,0,0.28-0.086,0.28-0.27v-1.5c0-0.2-0.065-0.274-0.311-0.274h-0.037v-0.146h1.968l0.037,0.543h-0.135
	c-0.035-0.254-0.083-0.337-0.246-0.337"/>
<path class="st0" d="M82.336,26.334c0.188,0,0.266-0.086,0.266-0.289v-0.667h-1.179v0.675c0,0.2,0.077,0.281,0.276,0.281h0.053
	v0.146h-1.146v-0.146h0.059c0.181,0,0.264-0.086,0.264-0.274v-1.492c0-0.188-0.078-0.274-0.269-0.274h-0.054v-0.146h1.145v0.146
	h-0.05c-0.186,0-0.279,0.064-0.279,0.274v0.588h1.179V24.58c0-0.211-0.078-0.286-0.286-0.286h-0.031v-0.146h1.143v0.146h-0.065
	c-0.181,0-0.267,0.072-0.267,0.274v1.485c0,0.195,0.067,0.281,0.274,0.281h0.058v0.146h-1.143v-0.146L82.336,26.334z"/>
<path class="st0" d="M85.617,24.148h0.926v0.146h-0.026c-0.286,0-0.329,0.131-0.329,0.311v0.934c0.055,0.494-0.3,0.939-0.794,0.995
	c-0.068,0.008-0.137,0.007-0.206-0.001c-0.644,0-1.051-0.293-1.051-0.866v-1.118c0-0.188-0.048-0.255-0.249-0.255h-0.06v-0.146
	h1.118v0.146h-0.062c-0.124-0.016-0.237,0.072-0.252,0.196c-0.002,0.02-0.002,0.039,0,0.059v1.118
	c-0.022,0.319,0.219,0.595,0.538,0.618c0.036,0.002,0.072,0.002,0.107-0.003c0.348,0.038,0.661-0.213,0.699-0.561
	c0.005-0.043,0.005-0.086,0.001-0.129V24.68c0-0.266-0.07-0.386-0.292-0.386H85.62L85.617,24.148z"/>
<path class="st0" d="M87.758,25.333h0.141c0.432,0,0.682-0.139,0.682-0.54s-0.289-0.54-0.637-0.54h-0.186L87.758,25.333z
	 M87.758,26.06c0,0.192,0.08,0.274,0.285,0.274h0.107v0.146H86.9v-0.146h0.055c0.22,0,0.312-0.057,0.312-0.274v-1.48
	c0-0.181-0.047-0.286-0.286-0.286h-0.076v-0.146c0.178-0.012,0.315-0.018,0.463-0.03c0.2-0.015,0.456-0.026,0.584-0.026
	c0.526,0,0.812,0.071,0.991,0.258c0.112,0.114,0.174,0.269,0.171,0.429c-0.014,0.299-0.233,0.548-0.528,0.6
	c0.234,0.208,0.359,0.5,0.613,0.769c0.118,0.139,0.291,0.22,0.473,0.222v0.146c-0.08,0-0.117,0-0.223,0
	c-0.443,0-0.624-0.068-0.793-0.244s-0.385-0.58-0.613-0.787h-0.285L87.758,26.06z"/>
<path class="st0" d="M91.487,26.372c0.5,0,0.729-0.451,0.729-0.968c0-0.6-0.284-1.166-0.827-1.166c-0.453,0-0.75,0.368-0.75,0.934
	C90.639,25.888,90.984,26.372,91.487,26.372 M91.474,24.072c0.653-0.05,1.222,0.438,1.273,1.09c0.003,0.034,0.004,0.068,0.003,0.102
	c0.007,0.693-0.55,1.26-1.243,1.267c-0.034,0-0.068-0.001-0.101-0.003c-0.66,0.055-1.241-0.435-1.296-1.096
	c-0.002-0.028-0.004-0.057-0.004-0.085c-0.001-0.705,0.569-1.277,1.274-1.278C91.411,24.069,91.443,24.07,91.474,24.072"/>
<path class="st0" d="M94.41,24.53l-0.3,0.878h0.631L94.41,24.53z M94.038,25.614l-0.149,0.439c-0.063,0.192-0.062,0.281,0.282,0.281
	h0.045v0.146h-0.945v-0.146h0.053c0.171,0,0.261-0.082,0.349-0.345l0.614-1.789l-0.041-0.108h0.531l0.713,1.905
	c0.092,0.248,0.171,0.322,0.357,0.337v0.146h-1.163v-0.146h0.126c0.219,0,0.25-0.1,0.177-0.285l-0.166-0.435H94.038z"/>
<path class="st0" d="M8.795,22.516c0.003,0.561,0.28,1.086,0.741,1.406c0.48,0.336,1.033,0.554,1.614,0.635
	c0.211,0.068,0.413,0.157,0.413,0.157c-0.286-0.157-0.538-0.37-0.738-0.628c-0.461-0.756-0.869-1.543-1.223-2.355
	c-0.391-0.806-1.057-1.446-1.878-1.805c0.169,0.429,0.164,0.908-0.015,1.333c-0.429,0.813-0.784,0.486-0.784,0.486
	c0.024,0.372,0.229,0.708,0.548,0.9c0.414,0.287,0.974,0.23,1.322-0.134 M6.542,22.028c-0.183-0.622-0.598-1.15-1.159-1.475
	c-0.569-0.242-1.225-0.156-1.712,0.224c-0.01-0.548,0.317-1.046,0.823-1.256c0.385-0.177,0.814-0.235,1.232-0.167
	c-0.022-0.306-0.092-0.606-0.208-0.89c-0.11-0.319-0.293-0.608-0.535-0.844c0.63-0.128,1.279,0.103,1.686,0.6
	c0.574,0.522,0.813,1.317,0.623,2.069c-0.143,0.37-0.331,0.722-0.558,1.047C6.634,21.556,6.57,21.789,6.542,22.028 M6.542,14.012
	c-0.034,0.119-0.078,0.235-0.131,0.347c-0.18,0.243-0.413,0.443-0.681,0.583c0.389,0.163,0.756,0.373,1.095,0.624
	c0.42,0.327,0.645,0.843,0.6,1.373c-0.054,0.405-0.252,0.778-0.558,1.049c-0.136-0.447-0.463-0.81-0.893-0.993
	c-0.511-0.23-1.103-0.188-1.576,0.113c-0.101,0.32-0.098,0.664,0.01,0.982c0.034,0.323,0.149,0.633,0.334,0.9
	c-0.709-0.128-1.322-0.572-1.663-1.207c-0.313-0.792-0.428-1.648-0.334-2.494c0.043-0.448-0.071-0.896-0.323-1.269
	c0.495,0.184,1.04,0.182,1.534-0.006L6.542,14.012z"/>
<path class="st0" d="M3.874,13.708c-0.198-0.824-0.18-1.685,0.051-2.5c0.285-0.867,0.99-1.53,1.872-1.761
	c0.376-0.061,0.745-0.162,1.1-0.3c0.234-0.124,0.416-0.328,0.512-0.575c-0.337,0.061-0.685,0.022-1-0.112
	C5.89,8.241,5.4,7.96,4.949,7.624C4.475,7.255,3.89,7.057,3.289,7.063C2.994,7.01,2.692,7.092,2.464,7.286
	C2.716,7.4,2.936,7.575,3.102,7.796C3.279,8.085,3.32,8.438,3.213,8.76c-0.222-0.103-0.458-0.174-0.7-0.212
	c-0.4-0.063-0.639-0.008-0.875-0.052c-0.124-0.02-0.231-0.099-0.287-0.211c-0.067,0.37-0.014,0.751,0.15,1.089
	c0.274,0.648,0.649,0.7,0.649,0.7c-0.597,0.112-1.081,0.551-1.249,1.135c-0.19,0.787,0.081,1.613,0.7,2.135
	c0,0,0.064-0.662,0.387-0.8c0.25-0.112,0.491-0.242,0.723-0.387c-0.027,0.355,0.08,0.708,0.3,0.988
	C3.243,13.407,3.541,13.601,3.874,13.708 M7.457,11.744c0,0-1.1-1.207-2.027-1.247s-1.362,1.9-1.092,2.961
	C4.873,12.249,6.15,11.547,7.457,11.744 M1.221,9.376c0,0-0.734-0.91-0.3-1.579C1.155,7.484,1.553,7.34,1.933,7.429
	c0,0-0.839-1.355-1.663-0.264C-0.69,8.437,1.221,9.376,1.221,9.376 M7.094,4.442c-0.02,0.345,0.049,0.689,0.2,1
	c0.374,0.517,0.437,1.197,0.163,1.774C7.155,7.693,6.58,7.92,6.033,7.779c0.322-0.215,0.546-0.547,0.625-0.926
	C6.745,6.266,6.706,5.781,6.745,5.38c0.062-0.329,0.18-0.645,0.349-0.934 M5.834,7.404c-0.126-0.37-0.143-0.769-0.051-1.149
	c0.152-0.498,0.394-0.964,0.713-1.376c0.274-0.339,0.384-0.782,0.3-1.21c-0.04-0.283-0.128-0.558-0.262-0.811
	c-0.081,0.253-0.248,0.469-0.473,0.61C5.742,3.636,5.444,3.842,5.175,4.082c-0.174,0.153-0.294,0.359-0.34,0.586
	C4.79,4.233,4.636,3.816,4.387,3.456C4.062,2.999,3.617,2.641,3.102,2.42C2.798,2.306,2.466,2.289,2.151,2.37
	C2.52,2.636,2.795,3.011,2.938,3.443c0.146,0.396,0.226,0.814,0.238,1.236c0.01,0.155,0.057,0.304,0.137,0.437
	c0,0-0.791,0.09-1.038,0.488C2.048,6.01,2.058,6.507,2.3,6.904c0.086-0.297,0.334-0.52,0.638-0.575
	c0.489-0.076,0.985,0.086,1.336,0.436c0.441,0.37,0.987,0.594,1.561,0.639 M2.726,4.593C2.499,4.405,2.333,4.152,2.251,3.869
	C2.116,3.558,2.09,3.211,2.177,2.883c-0.319,0.32-0.544,0.721-0.651,1.16C1.421,4.56,1.478,5.097,1.69,5.581
	c0.049-0.266,0.185-0.508,0.386-0.689C2.251,4.719,2.481,4.613,2.726,4.593 M3.958,14.02l0.163-0.061
	c0.848-0.345,1.038-0.663,1.8-0.99c0.48-0.191,1.014-0.2,1.5-0.025c-0.252,0.141-0.476,0.328-0.66,0.55
	c-0.1,0.163-0.175,0.34-0.221,0.526H3.958z"/>
<path class="st0" d="M6.136,23.756c0.063-0.149,0.209-0.245,0.371-0.244l0.186,0.048c0.249,0.158,0.518,0.284,0.8,0.373
	c0.348,0.082,0.556,0.018,0.577-0.079s-0.355-0.488-0.769-0.558c-0.628-0.082-1.265-0.059-1.886,0.067
	c-0.847,0.147-1.159-0.019-1.216-0.15s0.013-0.174,0.06-0.271c-0.111,0-0.212,0.063-0.261,0.163
	c-0.195,0.412-0.278,0.868-0.242,1.323c0.008,0.677,0.035,1.223,0.427,1.311s0.681-0.185,0.964-0.228s0.386,0.091,0.386,0.091
	L6.136,23.756z"/>
<path class="st0" d="M21.684,23.756c-0.065-0.148-0.211-0.244-0.373-0.244l-0.186,0.048c-0.249,0.159-0.518,0.284-0.8,0.373
	c-0.35,0.082-0.557,0.018-0.578-0.079s0.356-0.488,0.77-0.558c0.628-0.082,1.266-0.059,1.887,0.067
	c0.844,0.147,1.157-0.019,1.216-0.15s-0.015-0.174-0.062-0.271c0.112,0,0.214,0.063,0.263,0.163
	c0.194,0.413,0.277,0.869,0.241,1.323c-0.006,0.677-0.035,1.223-0.428,1.311s-0.679-0.185-0.962-0.228
	c-0.136-0.04-0.283-0.006-0.387,0.091L21.684,23.756z"/>
<path class="st0" d="M22.177,26.36c-5.111,2.951-11.407,2.954-16.52,0.006l-0.071-0.14l0.008-0.059l0.754-2.316l0.157-0.1
	l0.12,0.049c1.163,1.226,3.987,2.092,7.286,2.092c3.317,0,6.156-0.877,7.315-2.112l0.116-0.042l0.145,0.111l0.765,2.319l0.014,0.06
	L22.177,26.36z"/>
<path class="st0" d="M7.553,0.768c0.128,0,0.061-0.1-0.031-0.228l-0.31-0.348c-0.111-0.099-0.252-0.158-0.4-0.168H6.39
	c-0.127,0-0.124,0.1,0,0.228C6.707,0.552,7.117,0.734,7.553,0.768 M9.868,0.768L9.651,0.651L9.208,0.134l0.018-0.117h0.57
	l0.216,0.117l0.442,0.517l-0.018,0.117H9.868z M8.512,0.768L8.293,0.651L7.851,0.134l0.018-0.117h0.415L8.5,0.134l0.442,0.517
	L8.925,0.768H8.512z M11.397,0.768l-0.218-0.117l-0.443-0.517l0.017-0.117h0.913l0.218,0.117l0.442,0.517l-0.015,0.117H11.397z
	 M16.612,0.75l0.217-0.116l0.442-0.517L17.254,0h-0.57l-0.218,0.117l-0.442,0.517l0.017,0.116H16.612z M17.968,0.75l0.216-0.116
	l0.442-0.517L18.609,0h-0.413L17.98,0.117l-0.442,0.517l0.015,0.116H17.968z M20.268,0.75c-0.13,0-0.061-0.1,0.033-0.228
	l0.307-0.347c0.112-0.101,0.255-0.16,0.405-0.169h0.422c0.129,0,0.125,0.1,0,0.227c-0.317,0.3-0.728,0.482-1.163,0.517 M19.315,0.75
	l0.215-0.116l0.443-0.517L19.954,0h-0.418l-0.217,0.117l-0.443,0.517l0.017,0.116H19.315z M15.088,0.75l0.217-0.116l0.442-0.517
	L15.73,0h-0.913L14.6,0.117l-0.442,0.517l0.016,0.116H15.088z M13.052,0.707h0.17l0.486-0.572c0.045-0.066,0.018-0.122-0.064-0.122
	h-1.029c-0.082,0-0.109,0.056-0.062,0.121L13.052,0.707z"/>
<path class="st0" d="M12.513,5.488c-0.237,0.403-0.581,0.732-0.993,0.951c0.2,0.11,0.395,0.231,0.583,0.361
	c0.1,0.026,0.414-0.651,0.546-0.681c0.167-0.039,0.754,0.423,0.882,0.423c0.106,0,0.494-0.548,0.661-0.538
	c0.189,0.012,0.582,0.652,0.712,0.671c0.088,0.009,0.679-0.564,0.868-0.543c0.136,0.015,0.387,0.517,0.488,0.557
	s0.3-0.256,1.02-0.391c0,0,0.006-0.466-0.008-0.81H12.513z"/>
<path class="st0" d="M15.344,2.79c-0.106,0-0.173-0.1-0.192-0.214l0.021-0.1c0.124-0.062,0.267-0.073,0.4-0.033
	c0.166,0.048,0.312,0.148,0.416,0.285c-0.212-0.085-0.452-0.064-0.646,0.057 M13.603,4.299l-0.059,0.006l0.027-0.066l0.037,0.007
	L13.603,4.299z M14.017,4.392l-0.108,0.052l0.006-0.145l0.075-0.011l0.029,0.017L14.017,4.392z M14.533,4.27
	c-0.023,0.068-0.074,0.122-0.14,0.15c0.03-0.088-0.006-0.185-0.085-0.234l0.117-0.071l0.059,0.01L14.533,4.27z M14.456,1.748
	c-0.175,0.021-0.351-0.035-0.482-0.153V1.446c0.209-0.137,0.459-0.2,0.708-0.18c0.296,0.018,0.58,0.124,0.816,0.305
	c-0.357-0.097-0.738-0.033-1.043,0.177 M14.765,1.948c0.154-0.101,0.342-0.137,0.523-0.1c0.221,0.042,0.421,0.158,0.568,0.328
	c-0.249-0.114-0.541-0.085-0.763,0.075c-0.134,0-0.259-0.064-0.338-0.172L14.765,1.948z M14.931,4.255
	c-0.002-0.12-0.068-0.23-0.173-0.289l0.083-0.126l0.058-0.008l0.1,0.183c0.008,0.086-0.018,0.173-0.073,0.24 M15.095,3.668
	l-0.017-0.175l0.047-0.038c0.084,0.013,0.159,0.06,0.209,0.129c0.065,0.084,0.1,0.188,0.1,0.294
	C15.36,3.759,15.234,3.681,15.095,3.668 M15.315,3.259c-0.079-0.008-0.119-0.09-0.121-0.179l0.024-0.068
	c0.1-0.036,0.21-0.03,0.306,0.015c0.119,0.052,0.218,0.142,0.282,0.256C15.655,3.199,15.473,3.19,15.315,3.259 M13.694,0.994
	l-0.111,0.1c-0.066,0.08-0.114,0.172-0.143,0.271c-0.022,0.076-0.022,0.158,0,0.234c0.151,0.357,0.69,0.582,0.985,0.83
	c0.134,0.109,0.227,0.262,0.263,0.431c0.017,0.099,0.015,0.201-0.007,0.3c-0.034,0.143-0.105,0.275-0.207,0.381
	c-0.084,0.102-0.195,0.179-0.319,0.224c-0.123,0.023-0.249,0.023-0.372,0c-0.315-0.074-0.596-0.25-0.8-0.5l-0.052,0.068L12.913,3.35
	L12.86,3.523c-0.018,0.225,0.035,0.449,0.152,0.642c0.061,0.096,0.139,0.18,0.23,0.248c0.314,0.217,0.703,0.294,1.076,0.214
	c0.18-0.023,0.358-0.065,0.529-0.127c0.638-0.278,1.116-0.829,1.3-1.5c0.022-0.098,0.033-0.199,0.033-0.3
	c0.002-0.282-0.075-0.56-0.223-0.8c-0.107-0.183-0.237-0.352-0.389-0.5c-0.083-0.084-0.163-0.139-0.224-0.2
	c0.076-0.15,0.263-0.111,0.337-0.222c-0.6-0.05-1.203-0.067-1.805-0.05L13.694,0.994z M17.264,5.483
	c-0.001-0.082-0.006-0.164-0.016-0.246c-0.096-1.398-0.517-2.754-1.231-3.96c-0.025-0.085-0.115-0.134-0.2-0.109
	c-0.022,0.007-0.043,0.018-0.06,0.033L15.71,1.332c0,0,0.253,0.333,0.354,0.5c0.159,0.259,0.242,0.557,0.239,0.861
	c0.001,0.112-0.01,0.223-0.033,0.332c-0.195,0.708-0.7,1.29-1.374,1.583c-0.182,0.067-0.37,0.114-0.562,0.139
	c-0.405,0.082-0.826-0.005-1.166-0.241c-0.1-0.078-0.187-0.171-0.257-0.276c-0.13-0.215-0.189-0.466-0.17-0.717
	c-0.002-0.096,0.034-0.189,0.1-0.259l0.017-0.024c0.251-0.345,0.328,0.313,0.953,0.415c0.104,0.02,0.211,0.02,0.315,0
	c0.104-0.041,0.196-0.107,0.268-0.193c0.086-0.091,0.147-0.203,0.177-0.325c0.018-0.08,0.02-0.163,0.008-0.244
	c-0.032-0.142-0.11-0.269-0.223-0.361c-0.325-0.274-0.852-0.472-1.022-0.879c-0.033-0.101-0.036-0.21-0.007-0.312
	c0.04-0.106,0.092-0.207,0.157-0.3l0.294-0.349l0.5-0.576c0.04-0.151-0.146-0.113-0.185-0.078c-0.376,0.371-0.567,0.853-1.014,1.111
	c-0.58,0.127-1.105,0.435-1.5,0.878c-0.617,0.465-1.268,0.883-1.947,1.25c-0.057,0.157-0.057,0.328,0,0.485
	c0.376,0.175,0.776,0.292,1.187,0.345c0.176,0.291,0.227,0.64,0.142,0.969c0.258,0.077,0.887-0.441,1.086-0.884
	c0.313,0.066,0.55,0.322,0.592,0.639c0.019,0.228-0.026,0.456-0.13,0.659L17.264,5.483z"/>
<path class="st0" d="M19.087,22.516c-0.004,0.561-0.28,1.086-0.741,1.406c-0.48,0.336-1.033,0.554-1.613,0.635
	c-0.212,0.068-0.415,0.157-0.415,0.157c0.287-0.156,0.538-0.37,0.738-0.628c0.462-0.756,0.871-1.542,1.224-2.355
	c0.392-0.806,1.058-1.446,1.879-1.805c-0.171,0.429-0.166,0.908,0.014,1.333c0.43,0.813,0.786,0.486,0.786,0.486
	c-0.024,0.372-0.229,0.708-0.548,0.9c-0.414,0.287-0.976,0.23-1.324-0.134 M21.342,22.028c0.182-0.622,0.596-1.149,1.156-1.475
	c0.569-0.243,1.225-0.157,1.713,0.224c0.011-0.548-0.316-1.047-0.823-1.256c-0.385-0.177-0.814-0.235-1.232-0.167
	c0.022-0.306,0.092-0.606,0.208-0.89c0.109-0.319,0.292-0.608,0.533-0.844c-0.629-0.128-1.277,0.103-1.684,0.6
	c-0.575,0.521-0.815,1.317-0.624,2.069c0.144,0.37,0.332,0.721,0.559,1.047C21.247,21.556,21.313,21.79,21.342,22.028
	 M21.342,14.012c0.034,0.119,0.078,0.235,0.131,0.347c0.18,0.244,0.413,0.443,0.681,0.583c-0.388,0.163-0.755,0.372-1.093,0.624
	c-0.424,0.324-0.653,0.842-0.608,1.373c0.054,0.406,0.253,0.778,0.559,1.049c0.137-0.447,0.464-0.81,0.894-0.993
	c0.51-0.23,1.102-0.188,1.574,0.113c0.101,0.32,0.098,0.664-0.009,0.982c-0.033,0.324-0.148,0.634-0.335,0.9
	c0.71-0.128,1.323-0.572,1.665-1.207c0.314-0.791,0.429-1.648,0.334-2.494c-0.043-0.448,0.071-0.896,0.322-1.269
	c-0.495,0.184-1.04,0.182-1.533-0.006L21.342,14.012z"/>
<path class="st0" d="M24.009,13.708c0.198-0.824,0.18-1.685-0.051-2.5c-0.285-0.867-0.991-1.53-1.874-1.761
	c-0.376-0.061-0.745-0.162-1.1-0.3c-0.235-0.124-0.417-0.328-0.513-0.575c0.337,0.062,0.685,0.023,1-0.112
	c0.52-0.218,1.011-0.499,1.462-0.836c0.474-0.37,1.06-0.567,1.661-0.561c0.294-0.052,0.597,0.03,0.825,0.223
	c-0.252,0.113-0.471,0.289-0.637,0.51c-0.177,0.289-0.219,0.641-0.114,0.964c0.222-0.103,0.458-0.174,0.7-0.212
	c0.4-0.063,0.637-0.008,0.873-0.052c0.124-0.02,0.231-0.099,0.288-0.211c0.067,0.37,0.014,0.751-0.15,1.089
	c-0.273,0.648-0.649,0.7-0.649,0.7c0.598,0.111,1.081,0.551,1.249,1.135c0.19,0.787-0.081,1.613-0.7,2.135c0,0-0.06-0.662-0.385-0.8
	c-0.25-0.112-0.493-0.241-0.725-0.387c0.027,0.355-0.08,0.708-0.3,0.988C24.638,13.407,24.341,13.601,24.009,13.708 M20.423,11.744
	c0,0,1.1-1.207,2.028-1.247s1.362,1.9,1.092,2.961C23.008,12.249,21.73,11.547,20.423,11.744 M26.659,9.376
	c0,0,0.736-0.91,0.3-1.579c-0.234-0.312-0.63-0.457-1.01-0.368c0,0,0.836-1.355,1.661-0.264c0.961,1.272-0.95,2.211-0.95,2.211
	 M20.789,4.442c0.019,0.345-0.05,0.689-0.2,1c-0.373,0.518-0.436,1.197-0.162,1.774c0.302,0.477,0.877,0.704,1.424,0.563
	c-0.322-0.214-0.547-0.547-0.626-0.926c-0.086-0.587-0.048-1.072-0.086-1.473c-0.062-0.329-0.18-0.645-0.348-0.934 M22.048,7.404
	c0.128-0.37,0.146-0.769,0.053-1.149c-0.152-0.498-0.394-0.965-0.714-1.376c-0.273-0.34-0.382-0.782-0.3-1.21
	c0.041-0.283,0.13-0.558,0.263-0.811c0.08,0.253,0.248,0.469,0.473,0.61c0.319,0.168,0.617,0.374,0.887,0.614
	c0.174,0.153,0.292,0.359,0.338,0.586c0.046-0.435,0.201-0.852,0.45-1.212c0.325-0.458,0.77-0.817,1.287-1.036
	c0.304-0.113,0.635-0.131,0.949-0.05c-0.369,0.265-0.645,0.641-0.787,1.073c-0.145,0.397-0.226,0.814-0.238,1.236
	c-0.01,0.155-0.057,0.304-0.137,0.437c0,0,0.79,0.09,1.036,0.488c0.23,0.405,0.221,0.903-0.023,1.3
	c-0.086-0.297-0.334-0.52-0.638-0.575c-0.489-0.076-0.985,0.086-1.336,0.436C23.169,7.135,22.623,7.359,22.048,7.404 M25.159,4.593
	c0.464-0.438,0.672-1.084,0.549-1.71c0.318,0.32,0.543,0.721,0.65,1.16c0.106,0.517,0.05,1.054-0.162,1.538
	c-0.05-0.266-0.186-0.508-0.388-0.689C25.633,4.719,25.404,4.613,25.159,4.593 M23.928,14.02l-0.164-0.061
	c-0.848-0.345-1.04-0.663-1.8-0.99c-0.48-0.191-1.014-0.2-1.5-0.025c0.251,0.141,0.475,0.328,0.659,0.55
	c0.1,0.163,0.175,0.34,0.221,0.526H23.928z"/>
<path class="st0" d="M18.546,6.965c-0.108-0.133-1.235,0.471-1.235,0.471s-0.019-0.6-0.167-0.717
	c-0.418,0.046-0.806,0.243-1.089,0.554l0,0c-0.117-0.333-0.3-0.63-0.384-0.636c-0.164-0.011-0.843,0.6-0.843,0.6
	s-0.4-0.722-0.624-0.743c-0.094-0.009-0.447,0.38-0.633,0.625c-0.221-0.227-0.7-0.581-0.871-0.543
	c-0.1,0.022-0.325,0.49-0.469,0.827c-0.307-0.285-0.667-0.507-1.059-0.654c-0.107,0.26-0.16,0.538-0.156,0.819
	c-0.306-0.292-0.673-0.512-1.075-0.644c-0.042,0.521,0.16,1.032,0.547,1.384c-0.1-0.25-0.161-0.515-0.179-0.784
	c0.224-0.112,0.76,0.206,0.76,0.206s0.1-0.424,0.323-0.532c0.319,0.086,0.62,0.227,0.891,0.416c0.125-0.236,0.29-0.449,0.488-0.628
	c0.336-0.072,0.817,0.343,0.817,0.343s0.355-0.419,0.616-0.416c0.225,0.135,0.426,0.308,0.593,0.511
	c0.251-0.171,0.519-0.315,0.8-0.43c0.181,0.091,0.4,0.524,0.4,0.524c0.286-0.201,0.616-0.33,0.963-0.376
	c0.1,0.143,0.175,0.301,0.223,0.468c0.317-0.123,0.648-0.204,0.986-0.242c-0.067,0.33-0.196,0.645-0.38,0.927
	c0.348-0.182,0.952-1.1,0.757-1.334"/>
<path class="st0" d="M14.101,8.455c0.26,0.038,0.4-1.043,0.1-1.089C13.948,7.329,13.85,8.418,14.101,8.455"/>
<path class="st0" d="M15.102,8.473c0.272,0.11,0.662-0.9,0.385-1C15.245,7.378,14.868,8.38,15.102,8.473"/>
<path class="st0" d="M12.805,7.587c0,0.372,0.207,0.946,0.4,0.9c0.134-0.035,0.082-0.854-0.215-1.043
	c-0.111-0.039-0.186,0.072-0.186,0.147"/>
<path class="st0" d="M16.13,8.5c0.222,0.143,0.852-0.748,0.576-0.911C16.506,7.468,15.872,8.337,16.13,8.5"/>
<path class="st0" d="M11.5,7.65c-0.04,0.372,0.331,0.937,0.515,0.861c0.117-0.049-0.068-0.82-0.4-0.934L11.5,7.65z"/>
<path class="st0" d="M17.08,8.441c0.181,0.139,0.637-0.47,0.526-0.59C17.47,7.705,16.939,8.334,17.08,8.441"/>
<path class="st0" d="M11.045,8.539c0.17-0.092-0.128-0.675-0.292-0.6C10.622,8.001,10.894,8.621,11.045,8.539"/>
<polygon class="st0" points="44.82,35.754 47.585,35.754 47.585,36.302 45.476,36.302 45.476,37.751 47.463,37.751 47.463,38.288 
	45.476,38.288 45.476,40.4 44.82,40.4 "/>
<polygon class="st0" points="50.184,35.754 51.079,35.754 53.362,39.595 53.362,35.754 53.954,35.754 53.954,40.4 53.13,40.4 
	50.77,36.456 50.77,40.4 50.184,40.4 "/>
<polygon class="st0" points="54.875,35.754 57.79,35.754 57.79,36.302 55.519,36.302 55.519,37.751 57.679,37.751 57.679,38.288 
	55.519,38.288 55.519,39.833 57.841,39.833 57.841,40.4 54.875,40.4 "/>
<polygon class="st0" points="59.076,35.754 60.08,39.576 61.187,35.754 61.984,35.754 63.032,39.609 64.087,35.754 64.717,35.754 
	63.341,40.4 62.626,40.4 61.552,36.43 60.402,40.4 59.707,40.4 58.388,35.754 "/>
<polygon class="st0" points="66.782,39.756 69.466,36.322 66.853,36.322 66.853,35.754 70.231,35.754 70.231,36.392 67.524,39.833 
	70.276,39.833 70.276,40.4 66.782,40.4 "/>
<polygon class="st0" points="70.978,35.754 73.891,35.754 73.891,36.302 71.62,36.302 71.62,37.751 73.781,37.751 73.781,38.288 
	71.62,38.288 71.62,39.833 73.942,39.833 73.942,40.4 70.978,40.4 "/>
<path class="st0" d="M75.847,38.671h1.756l-0.856-2.279L75.847,38.671z M76.435,35.755h0.685l1.881,4.646h-0.7l-0.5-1.21h-2.154
	l-0.5,1.21h-0.662L76.435,35.755z"/>
<polygon class="st0" points="79.605,35.754 80.241,35.754 80.241,39.826 82.403,39.826 82.403,40.4 79.605,40.4 "/>
<path class="st0" d="M84.148,38.671h1.756l-0.858-2.279L84.148,38.671z M84.732,35.755h0.687l1.879,4.646h-0.7l-0.5-1.21h-2.162
	l-0.5,1.21h-0.662L84.732,35.755z"/>
<polygon class="st0" points="87.821,35.754 88.714,35.754 90.999,39.595 90.999,35.754 91.59,35.754 91.59,40.4 90.767,40.4 
	88.405,36.456 88.405,40.4 87.821,40.4 "/>
<path class="st0" d="M93.21,39.873h0.632c0.421,0.041,0.845-0.049,1.213-0.257c0.423-0.368,0.65-0.913,0.614-1.473
	c0.017-0.52-0.143-1.031-0.453-1.449c-0.327-0.317-0.782-0.466-1.233-0.405H93.21V39.873z M92.569,35.755h1.343
	c0.685-0.099,1.377,0.125,1.874,0.606c0.393,0.499,0.595,1.121,0.571,1.756c0.042,0.717-0.241,1.415-0.771,1.9
	c-0.507,0.328-1.114,0.463-1.712,0.38h-1.305V35.755z"/>
<polygon class="st0" points="4.727,35.754 5.621,35.754 7.904,39.595 7.904,35.754 8.496,35.754 8.496,40.4 7.673,40.4 
	5.311,36.456 5.311,40.4 4.727,40.4 "/>
<rect x="9.651" y="35.755" class="st0" width="0.641" height="4.646"/>
<polygon class="st0" points="13.321,40.4 12.613,40.4 10.961,35.754 11.675,35.754 12.994,39.724 14.382,35.754 15.032,35.754 "/>
<polygon class="st0" points="15.652,35.754 18.565,35.754 18.565,36.302 16.294,36.302 16.294,37.751 18.455,37.751 18.455,38.288 
	16.294,38.288 16.294,39.833 18.616,39.833 18.616,40.4 15.652,40.4 "/>
<rect x="28.011" y="35.755" class="st0" width="0.641" height="4.646"/>
<polygon class="st0" points="30.923,40.4 30.923,36.302 29.367,36.302 29.367,35.754 33.117,35.754 33.117,36.302 31.56,36.302 
	31.56,40.4 "/>
<polygon class="st0" points="35.252,38.574 33.439,35.754 34.235,35.754 35.606,38.033 36.995,35.754 37.716,35.754 35.902,38.606 
	35.902,40.4 35.252,40.4 "/>
<path class="st0" d="M20.193,37.757h1.016c0.209,0.01,0.417-0.024,0.612-0.1c0.206-0.128,0.327-0.358,0.314-0.6
	c0-0.754-0.667-0.754-0.926-0.754h-1.016V37.757z M19.569,35.757h1.66c0.369-0.024,0.738,0.051,1.068,0.219
	c0.326,0.204,0.521,0.563,0.514,0.947c0.004,0.307-0.113,0.603-0.327,0.824c-0.152,0.147-0.342,0.251-0.548,0.3
	c0.444,0.115,0.643,0.314,0.708,0.893c0.037,0.497,0.134,0.988,0.289,1.461h-0.688c-0.103-0.404-0.174-0.815-0.213-1.23
	c-0.077-0.676-0.237-0.868-1.016-0.868h-0.81v2.1h-0.637V35.757z"/>
<path class="st0" d="M24.259,39.043c0.012,0.322,0.051,0.919,1.12,0.919c0.965,0,1.087-0.6,1.087-0.829
	c0-0.52-0.419-0.624-1.069-0.784c-0.439-0.07-0.865-0.209-1.26-0.412c-0.31-0.199-0.493-0.546-0.483-0.914
	c0-0.944,0.9-1.358,1.769-1.358c0.479-0.025,0.949,0.14,1.307,0.459c0.187,0.22,0.287,0.501,0.282,0.79h-0.668
	c-0.033-0.579-0.522-0.707-0.979-0.707c-0.642,0-1.029,0.289-1.029,0.753c0,0.411,0.271,0.551,0.837,0.687
	c0.525,0.071,1.034,0.237,1.5,0.489c0.305,0.208,0.48,0.558,0.464,0.927c0,0.823-0.644,1.447-1.834,1.447
	c-0.534,0.039-1.058-0.154-1.44-0.528c-0.197-0.272-0.292-0.604-0.271-0.939L24.259,39.043z"/>
<path class="st0" d="M0.719,35.755v2.876c-0.027,0.294,0.045,0.589,0.206,0.837c0.26,0.312,0.654,0.482,1.06,0.456
	c0.628,0.067,1.191-0.387,1.259-1.014c0.011-0.1,0.008-0.202-0.008-0.302v-2.851H3.86v2.863c0.023,0.444-0.111,0.881-0.38,1.235
	c-0.378,0.429-0.929,0.666-1.5,0.644c-0.633,0.027-1.241-0.247-1.64-0.74c-0.217-0.349-0.312-0.76-0.27-1.169v-2.833L0.719,35.755z"
	/>
<path class="st0" d="M40.825,39.538c0.259,0.292,0.638,0.449,1.028,0.425c0.39,0.023,0.77-0.134,1.031-0.425
	c0.295-0.447,0.441-0.976,0.418-1.511c0-1.054-0.348-1.853-1.41-1.853c-1.176,0-1.478,0.945-1.478,1.9
	c-0.03,0.521,0.115,1.037,0.411,1.466 M40.336,36.26c0.406-0.416,0.968-0.643,1.549-0.624c1.288,0,2.1,0.823,2.1,2.4
	c0,1.234-0.5,2.476-2.148,2.476c-1.583,0-2.1-1.126-2.1-2.4c-0.035-0.67,0.178-1.33,0.6-1.852"/>
<path class="st0" d="M19.363,15.408c0,0,0.363,6.477-5.452,9.375c-5.813-2.9-5.45-9.375-5.45-9.375v-5.273h10.9L19.363,15.408z
	 M18.818,15.431v-4.744H9.005v4.744c-0.014,1.191,0.261,2.368,0.8,3.43c-0.385-1.107-0.572-2.273-0.555-3.445v-4.508h9.322v4.508
	c0.017,1.172-0.171,2.338-0.555,3.446C18.556,17.799,18.83,16.622,18.818,15.431 M17.725,17.845l-2.01-1.239l2.01-1.24l-2.354,0.179
	l0.9-2.184l-1.8,1.529l-0.559-2.3l-0.557,2.3l-1.8-1.529l0.9,2.184l-2.354-0.179l2.009,1.24l-2.009,1.239l2.354-0.179l-0.9,2.184
	l1.8-1.528l0.557,2.294l0.559-2.294l1.8,1.528l-0.9-2.184L17.725,17.845z"/>
</svg>
