<svg xmlns="http://www.w3.org/2000/svg" viewBox="0 0 429.03 79.98"><defs><style>.a{fill:#f80000;}</style></defs><title>oracle</title><path class="a" d="M179.57,48h27L192.28,25,166.1,66.53H154.18L186,16.68a7.49,7.49,0,0,1,6.25-3.23,7.37,7.37,0,0,1,6.13,3.15l32,49.93H218.46l-5.62-9.28H185.53Zm123.78,9.27V14H293.24V61.49A4.92,4.92,0,0,0,294.71,65a5.17,5.17,0,0,0,3.69,1.51h46.11l6-9.28ZM136.06,49.49a17.77,17.77,0,0,0,0-35.54H91.82V66.53h10.11V23.23h33.46a8.52,8.52,0,0,1,0,17l-28.51,0,30.18,26.31h14.69l-20.31-17Zm-106.47,17a26.29,26.29,0,1,1,0-52.58H60.15a26.29,26.29,0,0,1,0,52.58H29.59Zm29.88-9.28a17,17,0,1,0,0-34H30.27a17,17,0,1,0,0,34H59.47Zm192,9.28A26.29,26.29,0,0,1,251.44,14h36.34l-5.91,9.28H252.16a17,17,0,1,0,0,34h36.5l-6,9.28Zm123.65-9.28a17,17,0,0,1-16.36-12.37H402L408,35.6H358.78a17,17,0,0,1,16.36-12.37h29.67l6-9.28H374.47a26.29,26.29,0,0,0-.05,52.58h31.23l6-9.28H375.14"/><path class="a" d="M416.22,19.53a4.63,4.63,0,1,1,0,.07Zm4.61,6a5.92,5.92,0,1,0-5.87-6v0A5.91,5.91,0,0,0,420.83,25.49Zm-.54-9.44a4.18,4.18,0,0,1,1.72.21,1.85,1.85,0,0,1,1.3,1.85,2,2,0,0,1-.08.54,1.7,1.7,0,0,1-.8,1.13,2.5,2.5,0,0,1-.29.17l1.51,2.73h-1.47l-1.35-2.52h-.92v2.52h-1.3V16.05Zm.46,3c.42,0,.84,0,1.09-.42a.84.84,0,0,0,.17-.59.94.94,0,0,0-.5-.79,3,3,0,0,0-1.22-.13h-.38v1.93h.84"/></svg>